<svg width="240" height="210" viewBox="0 0 240 210" fill="none" xmlns="http://www.w3.org/2000/svg">
<g opacity="0.9">
<path opacity="0.8" d="M99.3001 210C96.9034 210 94.4132 209.952 91.8091 209.853C82.5832 209.503 74.0559 208.318 66.2223 206.428C62.0111 205.412 57.9993 204.187 54.1923 202.775C19.6239 189.995 1.59134 161.866 0.0943058 132.434C0.0315095 131.205 0.000641677 129.998 5.22735e-06 128.81C-0.0140497 92.5608 28.3174 74.9312 46.9368 64.4701C65.7635 53.8938 88.3755 13.5484 143.917 13.5484C145.108 13.5484 146.312 13.5668 147.533 13.605C156.406 13.8824 165.257 14.9891 173.834 17.1115C193.413 21.9485 213.317 32.6473 224.883 48.2881C225.751 49.463 226.579 50.6651 227.373 51.8905C236.034 65.3038 240.002 81.5183 240 97.6398C239.999 110.329 237.539 122.961 232.971 134.124C225.367 152.716 209.829 172.838 187.965 178.795C156.382 187.403 151.378 210 99.3001 210Z" fill="#6774E4"/>
<path d="M70.2416 104.823C70.2373 104.819 69.6525 104.207 68.5763 103.247C68.4691 103.152 68.3014 103.157 68.2011 103.259C68.1007 103.361 68.1066 103.521 68.2133 103.616C68.7455 104.091 69.1558 104.479 69.4317 104.747C69.5702 104.881 69.6748 104.986 69.7448 105.057C69.8149 105.128 69.8488 105.163 69.8488 105.163C69.9476 105.267 70.1153 105.274 70.224 105.18C70.3323 105.087 70.3403 104.926 70.2416 104.823" fill="#373D43"/>
<path d="M173.981 185.343H203.067V189.656H173.981V185.343Z" fill="#DEDDDF"/>
<path d="M173.982 185.343V185.596H202.802V189.403H174.247V185.343H173.982V185.596V185.343H173.716V189.908H203.333V185.09H173.716V185.343H173.982Z" fill="#373D43"/>
<path d="M200.896 189.341H201.427V185.423H200.896V189.341Z" fill="#373D43"/>
<path d="M198.839 189.341H199.37V185.423H198.839V189.341Z" fill="#373D43"/>
<path d="M196.783 189.341H197.314V185.423H196.783V189.341Z" fill="#373D43"/>
<path d="M194.726 189.341H195.256V185.423H194.726V189.341Z" fill="#373D43"/>
<path d="M192.669 189.341H193.199V187.994H192.669V189.341Z" fill="#373D43"/>
<path d="M192.669 186.403H193.199V185.423H192.669V186.403Z" fill="#373D43"/>
<path d="M190.612 189.341H191.143V185.423H190.612V189.341Z" fill="#373D43"/>
<path d="M188.556 189.341H189.086V188.117H188.556V189.341Z" fill="#373D43"/>
<path d="M188.556 187.499H189.086V185.423H188.556V187.499Z" fill="#373D43"/>
<path d="M184.827 189.341H185.358V185.423H184.827V189.341Z" fill="#373D43"/>
<path d="M180.328 189.341H180.859V188.117H180.328V189.341Z" fill="#373D43"/>
<path d="M180.328 186.77H180.859V185.423H180.328V186.77Z" fill="#373D43"/>
<path d="M178.785 189.341H179.315V185.423H178.785V189.341Z" fill="#373D43"/>
<path d="M176.214 189.341H176.745V187.75H176.214V189.341Z" fill="#373D43"/>
<path d="M176.214 186.77H176.745V185.423H176.214V186.77Z" fill="#373D43"/>
<path d="M204.504 180.935H175.63V185.248H204.504V180.935Z" fill="#DEDDDF"/>
<path d="M204.504 180.935V180.682H175.364V185.501H204.77V180.682H204.504V180.935H204.239V184.996H175.895V181.188H204.504V180.935H204.239H204.504Z" fill="#373D43"/>
<path d="M177.256 184.933H177.787V181.015H177.256V184.933Z" fill="#373D43"/>
<path d="M179.298 184.933H179.829V181.015H179.298V184.933Z" fill="#373D43"/>
<path d="M181.34 184.933H181.87V181.015H181.34V184.933Z" fill="#373D43"/>
<path d="M183.381 184.933H183.912V181.015H183.381V184.933Z" fill="#373D43"/>
<path d="M185.423 184.933H185.954V183.587H185.423V184.933Z" fill="#373D43"/>
<path d="M185.423 181.995H185.954V181.015H185.423V181.995Z" fill="#373D43"/>
<path d="M187.466 184.933H187.996V181.015H187.466V184.933Z" fill="#373D43"/>
<path d="M189.507 184.933H190.038V183.709H189.507V184.933Z" fill="#373D43"/>
<path d="M189.507 183.092H190.038V181.015H189.507V183.092Z" fill="#373D43"/>
<path d="M193.209 184.933H193.739V181.015H193.209V184.933Z" fill="#373D43"/>
<path d="M197.676 184.933H198.206V183.709H197.676V184.933Z" fill="#373D43"/>
<path d="M197.676 182.362H198.206V181.015H197.676V182.362Z" fill="#373D43"/>
<path d="M199.207 184.933H199.738V181.015H199.207V184.933Z" fill="#373D43"/>
<path d="M201.759 184.933H202.29V183.341H201.759V184.933Z" fill="#373D43"/>
<path d="M201.759 182.362H202.29V181.015H201.759V182.362Z" fill="#373D43"/>
<path d="M172.695 176.405H201.782V180.718H172.695V176.405Z" fill="#DEDDDF"/>
<path d="M172.696 176.405V176.658H201.517V180.465H172.961V176.405H172.696V176.658V176.405H172.43V180.971H202.047V176.152H172.43V176.405H172.696Z" fill="#373D43"/>
<path d="M199.611 180.403H200.142V176.485H199.611V180.403Z" fill="#373D43"/>
<path d="M197.555 180.403H198.085V176.485H197.555V180.403Z" fill="#373D43"/>
<path d="M195.498 180.403H196.028V176.485H195.498V180.403Z" fill="#373D43"/>
<path d="M193.441 180.403H193.971V176.485H193.441V180.403Z" fill="#373D43"/>
<path d="M191.384 180.403H191.914V179.056H191.384V180.403Z" fill="#373D43"/>
<path d="M191.384 177.465H191.914V176.485H191.384V177.465Z" fill="#373D43"/>
<path d="M189.327 180.403H189.858V176.485H189.327V180.403Z" fill="#373D43"/>
<path d="M187.27 180.403H187.801V179.179H187.27V180.403Z" fill="#373D43"/>
<path d="M187.27 178.561H187.801V176.485H187.27V178.561Z" fill="#373D43"/>
<path d="M183.541 180.403H184.072V176.485H183.541V180.403Z" fill="#373D43"/>
<path d="M179.042 180.403H179.573V179.179H179.042V180.403Z" fill="#373D43"/>
<path d="M179.042 177.832H179.573V176.485H179.042V177.832Z" fill="#373D43"/>
<path d="M177.499 180.403H178.03V176.485H177.499V180.403Z" fill="#373D43"/>
<path d="M174.928 180.403H175.459V178.811H174.928V180.403Z" fill="#373D43"/>
<path d="M174.928 177.832H175.459V176.485H174.928V177.832Z" fill="#373D43"/>
<path d="M201.033 171.997H172.158V176.31H201.033V171.997Z" fill="#DEDDDF"/>
<path d="M201.033 171.997V171.745H171.893V176.562H201.298V171.745H201.033V171.997H200.768V176.057H172.424V172.25H201.033V171.997H200.768H201.033Z" fill="#373D43"/>
<path d="M173.785 175.995H174.316V172.077H173.785V175.995Z" fill="#373D43"/>
<path d="M175.827 175.995H176.357V172.077H175.827V175.995Z" fill="#373D43"/>
<path d="M177.869 175.995H178.399V172.077H177.869V175.995Z" fill="#373D43"/>
<path d="M179.91 175.995H180.441V172.077H179.91V175.995Z" fill="#373D43"/>
<path d="M181.953 175.995H182.483V174.648H181.953V175.995Z" fill="#373D43"/>
<path d="M181.953 173.057H182.483V172.077H181.953V173.057Z" fill="#373D43"/>
<path d="M183.995 175.995H184.526V172.077H183.995V175.995Z" fill="#373D43"/>
<path d="M186.037 175.995H186.567V174.771H186.037V175.995Z" fill="#373D43"/>
<path d="M186.037 174.153H186.567V172.077H186.037V174.153Z" fill="#373D43"/>
<path d="M189.737 175.995H190.268V172.077H189.737V175.995Z" fill="#373D43"/>
<path d="M194.204 175.995H194.735V174.771H194.204V175.995Z" fill="#373D43"/>
<path d="M194.204 173.424H194.735V172.077H194.204V173.424Z" fill="#373D43"/>
<path d="M195.736 175.995H196.266V172.077H195.736V175.995Z" fill="#373D43"/>
<path d="M198.289 175.995H198.819V174.404H198.289V175.995Z" fill="#373D43"/>
<path d="M198.289 173.424H198.819V172.077H198.289V173.424Z" fill="#373D43"/>
<path d="M173.081 167.467H202.168V171.779H173.081V167.467" fill="#DEDDDF"/>
<path d="M173.081 167.467V167.72H201.902V171.527H173.347V167.467H173.081V167.72V167.467H172.816V172.032H202.433V167.214H172.816V167.467H173.081" fill="#373D43"/>
<path d="M199.997 171.465H200.527V167.547H199.997V171.465Z" fill="#373D43"/>
<path d="M197.94 171.465H198.471V167.547H197.94V171.465Z" fill="#373D43"/>
<path d="M195.883 171.465H196.413V167.547H195.883V171.465Z" fill="#373D43"/>
<path d="M193.826 171.465H194.357V167.547H193.826V171.465Z" fill="#373D43"/>
<path d="M191.769 171.465H192.3V170.118H191.769V171.465Z" fill="#373D43"/>
<path d="M191.769 168.527H192.3V167.547H191.769V168.527Z" fill="#373D43"/>
<path d="M189.712 171.465H190.243V167.547H189.712V171.465Z" fill="#373D43"/>
<path d="M187.655 171.465H188.186V170.241H187.655V171.465Z" fill="#373D43"/>
<path d="M187.655 169.623H188.186V167.547H187.655V169.623Z" fill="#373D43"/>
<path d="M183.927 171.465H184.458V167.547H183.927V171.465Z" fill="#373D43"/>
<path d="M179.427 171.465H179.958V170.241H179.427V171.465Z" fill="#373D43"/>
<path d="M179.427 168.894H179.958V167.547H179.427V168.894Z" fill="#373D43"/>
<path d="M177.885 171.465H178.416V167.547H177.885V171.465Z" fill="#373D43"/>
<path d="M175.313 171.465H175.844V169.873H175.313V171.465Z" fill="#373D43"/>
<path d="M175.313 168.894H175.844V167.547H175.313V168.894Z" fill="#373D43"/>
<path d="M204.512 163.059H175.637V167.372H204.512V163.059Z" fill="#DEDDDF"/>
<path d="M204.512 163.059V162.806H175.372V167.624H204.777V162.806H204.512V163.059H204.246V167.119H175.903V163.311H204.512V163.059H204.246H204.512Z" fill="#373D43"/>
<path d="M177.263 167.057H177.794V163.139H177.263V167.057Z" fill="#373D43"/>
<path d="M179.305 167.057H179.836V163.139H179.305V167.057Z" fill="#373D43"/>
<path d="M181.347 167.057H181.878V163.139H181.347V167.057Z" fill="#373D43"/>
<path d="M183.389 167.057H183.92V163.139H183.389V167.057Z" fill="#373D43"/>
<path d="M185.431 167.057H185.962V165.71H185.431V167.057Z" fill="#373D43"/>
<path d="M185.431 164.119H185.962V163.139H185.431V164.119Z" fill="#373D43"/>
<path d="M187.473 167.057H188.003V163.139H187.473V167.057Z" fill="#373D43"/>
<path d="M189.515 167.057H190.045V165.833H189.515V167.057Z" fill="#373D43"/>
<path d="M189.515 165.215H190.045V163.138H189.515V165.215Z" fill="#373D43"/>
<path d="M193.216 167.057H193.747V163.139H193.216V167.057Z" fill="#373D43"/>
<path d="M197.683 167.057H198.214V165.833H197.683V167.057Z" fill="#373D43"/>
<path d="M197.683 164.486H198.214V163.139H197.683V164.486Z" fill="#373D43"/>
<path d="M199.214 167.057H199.745V163.139H199.214V167.057Z" fill="#373D43"/>
<path d="M201.767 167.057H202.297V165.466H201.767V167.057Z" fill="#373D43"/>
<path d="M201.767 164.486H202.297V163.139H201.767V164.486Z" fill="#373D43"/>
<path d="M175.524 158.529H204.61V162.842H175.524V158.529" fill="#DEDDDF"/>
<path d="M175.524 158.529V158.781H204.345V162.589H175.789V158.529H175.524V158.781V158.529H175.259V163.095H204.875V158.276H175.259V158.529H175.524" fill="#373D43"/>
<path d="M202.439 162.527H202.97V158.609H202.439V162.527Z" fill="#373D43"/>
<path d="M200.383 162.527H200.913V158.609H200.383V162.527Z" fill="#373D43"/>
<path d="M198.326 162.527H198.856V158.609H198.326V162.527Z" fill="#373D43"/>
<path d="M196.269 162.527H196.799V158.609H196.269V162.527Z" fill="#373D43"/>
<path d="M194.212 162.527H194.742V161.18H194.212V162.527Z" fill="#373D43"/>
<path d="M194.212 159.588H194.742V158.609H194.212V159.588Z" fill="#373D43"/>
<path d="M192.155 162.527H192.685V158.609H192.155V162.527Z" fill="#373D43"/>
<path d="M190.098 162.527H190.629V161.303H190.098V162.527Z" fill="#373D43"/>
<path d="M190.098 160.685H190.629V158.609H190.098V160.685Z" fill="#373D43"/>
<path d="M186.37 162.527H186.9V158.609H186.37V162.527Z" fill="#373D43"/>
<path d="M181.871 162.527H182.401V161.303H181.871V162.527Z" fill="#373D43"/>
<path d="M181.871 159.956H182.401V158.609H181.871V159.956Z" fill="#373D43"/>
<path d="M180.328 162.527H180.859V158.609H180.328V162.527Z" fill="#373D43"/>
<path d="M177.757 162.527H178.287V160.935H177.757V162.527Z" fill="#373D43"/>
<path d="M177.757 159.956H178.287V158.609H177.757V159.956Z" fill="#373D43"/>
<path d="M202.962 154.121H174.087V158.434H202.962V154.121Z" fill="#DEDDDF"/>
<path d="M202.962 154.121V153.868H173.822V158.687H203.227V153.868H202.962V154.121H202.696V158.181H174.352V154.374H202.962V154.121H202.696H202.962Z" fill="#373D43"/>
<path d="M175.713 158.119H176.244V154.201H175.713V158.119Z" fill="#373D43"/>
<path d="M177.755 158.119H178.286V154.201H177.755V158.119Z" fill="#373D43"/>
<path d="M179.797 158.119H180.328V154.201H179.797V158.119Z" fill="#373D43"/>
<path d="M181.839 158.119H182.37V154.201H181.839V158.119Z" fill="#373D43"/>
<path d="M183.881 158.119H184.412V156.772H183.881V158.119Z" fill="#373D43"/>
<path d="M183.881 155.181H184.412V154.201H183.881V155.181Z" fill="#373D43"/>
<path d="M185.923 158.119H186.454V154.201H185.923V158.119Z" fill="#373D43"/>
<path d="M187.965 158.119H188.496V156.894H187.965V158.119Z" fill="#373D43"/>
<path d="M187.965 156.277H188.496V154.201H187.965V156.277Z" fill="#373D43"/>
<path d="M191.666 158.119H192.197V154.201H191.666V158.119Z" fill="#373D43"/>
<path d="M196.133 158.119H196.663V156.894H196.133V158.119Z" fill="#373D43"/>
<path d="M196.133 155.548H196.663V154.201H196.133V155.548Z" fill="#373D43"/>
<path d="M197.664 158.119H198.195V154.201H197.664V158.119Z" fill="#373D43"/>
<path d="M200.217 158.119H200.748V156.527H200.217V158.119Z" fill="#373D43"/>
<path d="M200.217 155.548H200.748V154.201H200.217V155.548Z" fill="#373D43"/>
<path d="M173.981 149.591H203.067V153.903H173.981V149.591Z" fill="#DEDDDF"/>
<path d="M173.982 149.591V149.844H202.802V153.651H174.247V149.591H173.982V149.844V149.591H173.716V154.156H203.333V149.338H173.716V149.591H173.982Z" fill="#373D43"/>
<path d="M200.896 153.589H201.427V149.671H200.896V153.589Z" fill="#373D43"/>
<path d="M198.839 153.589H199.37V149.671H198.839V153.589Z" fill="#373D43"/>
<path d="M196.783 153.589H197.314V149.671H196.783V153.589Z" fill="#373D43"/>
<path d="M194.726 153.589H195.256V149.671H194.726V153.589Z" fill="#373D43"/>
<path d="M192.669 153.589H193.199V152.242H192.669V153.589Z" fill="#373D43"/>
<path d="M192.669 150.65H193.199V149.671H192.669V150.65Z" fill="#373D43"/>
<path d="M190.612 153.589H191.143V149.671H190.612V153.589Z" fill="#373D43"/>
<path d="M188.556 153.589H189.086V152.364H188.556V153.589Z" fill="#373D43"/>
<path d="M188.556 151.747H189.086V149.671H188.556V151.747Z" fill="#373D43"/>
<path d="M184.827 153.589H185.358V149.671H184.827V153.589Z" fill="#373D43"/>
<path d="M180.328 153.589H180.859V152.364H180.328V153.589Z" fill="#373D43"/>
<path d="M180.328 151.017H180.859V149.671H180.328V151.017Z" fill="#373D43"/>
<path d="M178.785 153.589H179.315V149.671H178.785V153.589Z" fill="#373D43"/>
<path d="M176.214 153.589H176.745V151.997H176.214V153.589Z" fill="#373D43"/>
<path d="M176.214 151.017H176.745V149.671H176.214V151.017Z" fill="#373D43"/>
<path d="M201.033 145.183H172.158V149.495H201.033V145.183Z" fill="#DEDDDF"/>
<path d="M201.033 145.183V144.93H171.893V149.748H201.298V144.93H201.033V145.183H200.768V149.243H172.424V145.436H201.033V145.183H200.768H201.033Z" fill="#373D43"/>
<path d="M173.785 149.181H174.316V145.263H173.785V149.181Z" fill="#373D43"/>
<path d="M175.827 149.181H176.357V145.263H175.827V149.181Z" fill="#373D43"/>
<path d="M177.869 149.181H178.399V145.263H177.869V149.181Z" fill="#373D43"/>
<path d="M179.91 149.181H180.441V145.263H179.91V149.181Z" fill="#373D43"/>
<path d="M181.953 149.181H182.483V147.834H181.953V149.181Z" fill="#373D43"/>
<path d="M181.953 146.242H182.483V145.263H181.953V146.242Z" fill="#373D43"/>
<path d="M183.995 149.181H184.526V145.263H183.995V149.181Z" fill="#373D43"/>
<path d="M186.037 149.181H186.567V147.956H186.037V149.181Z" fill="#373D43"/>
<path d="M186.037 147.339H186.567V145.263H186.037V147.339Z" fill="#373D43"/>
<path d="M189.737 149.181H190.268V145.263H189.737V149.181Z" fill="#373D43"/>
<path d="M194.204 149.181H194.735V147.956H194.204V149.181Z" fill="#373D43"/>
<path d="M194.204 146.609H194.735V145.263H194.204V146.609Z" fill="#373D43"/>
<path d="M195.736 149.181H196.266V145.263H195.736V149.181Z" fill="#373D43"/>
<path d="M198.289 149.181H198.819V147.589H198.289V149.181Z" fill="#373D43"/>
<path d="M198.289 146.609H198.819V145.263H198.289V146.609Z" fill="#373D43"/>
<path d="M173.981 140.608H203.067V144.921H173.981V140.608Z" fill="#DEDDDF"/>
<path d="M173.982 140.608V140.861H202.802V144.668H174.247V140.608H173.982V140.861V140.608H173.716V145.174H203.333V140.355H173.716V140.608H173.982Z" fill="#373D43"/>
<path d="M200.896 144.606H201.427V140.688H200.896V144.606Z" fill="#373D43"/>
<path d="M198.839 144.606H199.37V140.688H198.839V144.606Z" fill="#373D43"/>
<path d="M196.783 144.606H197.314V140.688H196.783V144.606Z" fill="#373D43"/>
<path d="M194.726 144.606H195.256V140.688H194.726V144.606Z" fill="#373D43"/>
<path d="M192.669 144.606H193.199V143.259H192.669V144.606Z" fill="#373D43"/>
<path d="M192.669 141.667H193.199V140.688H192.669V141.667Z" fill="#373D43"/>
<path d="M190.612 144.606H191.143V140.688H190.612V144.606Z" fill="#373D43"/>
<path d="M188.556 144.606H189.086V143.382H188.556V144.606Z" fill="#373D43"/>
<path d="M188.556 142.765H189.086V140.688H188.556V142.765Z" fill="#373D43"/>
<path d="M184.827 144.606H185.358V140.688H184.827V144.606Z" fill="#373D43"/>
<path d="M180.328 144.606H180.859V143.382H180.328V144.606Z" fill="#373D43"/>
<path d="M180.328 142.035H180.859V140.688H180.328V142.035Z" fill="#373D43"/>
<path d="M178.785 144.606H179.315V140.688H178.785V144.606Z" fill="#373D43"/>
<path d="M176.214 144.606H176.745V143.014H176.214V144.606Z" fill="#373D43"/>
<path d="M176.214 142.035H176.745V140.688H176.214V142.035Z" fill="#373D43"/>
<path d="M204.504 136.201H175.63V140.513H204.504V136.201Z" fill="#DEDDDF"/>
<path d="M204.504 136.201V135.948H175.364V140.766H204.77V135.948H204.504V136.201H204.239V140.26H175.895V136.453H204.504V136.201H204.239H204.504Z" fill="#373D43"/>
<path d="M177.256 140.199H177.787V136.28H177.256V140.199Z" fill="#373D43"/>
<path d="M179.298 140.199H179.829V136.28H179.298V140.199Z" fill="#373D43"/>
<path d="M181.34 140.199H181.87V136.28H181.34V140.199Z" fill="#373D43"/>
<path d="M183.381 140.199H183.912V136.28H183.381V140.199Z" fill="#373D43"/>
<path d="M185.423 140.199H185.954V138.851H185.423V140.199Z" fill="#373D43"/>
<path d="M185.423 137.259H185.954V136.28H185.423V137.259Z" fill="#373D43"/>
<path d="M187.466 140.199H187.996V136.28H187.466V140.199Z" fill="#373D43"/>
<path d="M189.507 140.199H190.038V138.974H189.507V140.199Z" fill="#373D43"/>
<path d="M189.507 138.357H190.038V136.28H189.507V138.357Z" fill="#373D43"/>
<path d="M193.209 140.199H193.739V136.28H193.209V140.199Z" fill="#373D43"/>
<path d="M197.676 140.199H198.206V138.974H197.676V140.199Z" fill="#373D43"/>
<path d="M197.676 137.627H198.206V136.28H197.676V137.627Z" fill="#373D43"/>
<path d="M199.207 140.199H199.738V136.28H199.207V140.199Z" fill="#373D43"/>
<path d="M201.759 140.199H202.29V138.606H201.759V140.199Z" fill="#373D43"/>
<path d="M201.759 137.627H202.29V136.28H201.759V137.627Z" fill="#373D43"/>
<path d="M183.999 185.343H154.912V189.656H183.999V185.343Z" fill="white"/>
<path d="M183.999 185.343V185.09H154.647V189.908H184.264V185.09H183.999V185.343H183.733V189.403H155.178V185.596H183.999V185.343H183.733H183.999Z" fill="#373D43"/>
<path d="M156.552 189.341H157.083V185.423H156.552V189.341Z" fill="#373D43"/>
<path d="M158.609 189.341H159.139V185.423H158.609V189.341Z" fill="#373D43"/>
<path d="M160.666 189.341H161.197V185.423H160.666V189.341Z" fill="#373D43"/>
<path d="M162.723 189.341H163.253V185.423H162.723V189.341Z" fill="#373D43"/>
<path d="M164.78 189.341H165.311V187.994H164.78V189.341Z" fill="#373D43"/>
<path d="M164.78 186.403H165.311V185.423H164.78V186.403Z" fill="#373D43"/>
<path d="M166.837 189.341H167.367V185.423H166.837V189.341Z" fill="#373D43"/>
<path d="M168.894 189.341H169.424V188.117H168.894V189.341Z" fill="#373D43"/>
<path d="M168.894 187.499H169.424V185.423H168.894V187.499Z" fill="#373D43"/>
<path d="M172.622 189.341H173.152V185.423H172.622V189.341Z" fill="#373D43"/>
<path d="M177.121 189.341H177.652V188.117H177.121V189.341Z" fill="#373D43"/>
<path d="M177.121 186.77H177.652V185.423H177.121V186.77Z" fill="#373D43"/>
<path d="M178.664 189.341H179.195V185.423H178.664V189.341Z" fill="#373D43"/>
<path d="M181.235 189.341H181.766V187.75H181.235V189.341Z" fill="#373D43"/>
<path d="M181.235 186.77H181.766V185.423H181.235V186.77Z" fill="#373D43"/>
<path d="M153.475 180.935H182.35V185.248H153.475V180.935Z" fill="white"/>
<path d="M153.475 180.935V181.188H182.085V184.996H153.741V180.935H153.475V181.188V180.935H153.21V185.501H182.615V180.682H153.21V180.935H153.475Z" fill="#373D43"/>
<path d="M180.193 184.933H180.724V181.015H180.193V184.933Z" fill="#373D43"/>
<path d="M178.151 184.933H178.682V181.015H178.151V184.933Z" fill="#373D43"/>
<path d="M176.109 184.933H176.64V181.015H176.109V184.933Z" fill="#373D43"/>
<path d="M174.067 184.933H174.598V181.015H174.067V184.933Z" fill="#373D43"/>
<path d="M172.025 184.933H172.556V183.587H172.025V184.933Z" fill="#373D43"/>
<path d="M172.025 181.995H172.556V181.015H172.025V181.995Z" fill="#373D43"/>
<path d="M169.983 184.933H170.514V181.015H169.983V184.933Z" fill="#373D43"/>
<path d="M167.941 184.933H168.472V183.709H167.941V184.933Z" fill="#373D43"/>
<path d="M167.941 183.092H168.472V181.015H167.941V183.092Z" fill="#373D43"/>
<path d="M164.24 184.933H164.771V181.015H164.24V184.933Z" fill="#373D43"/>
<path d="M159.773 184.933H160.304V183.709H159.773V184.933Z" fill="#373D43"/>
<path d="M159.773 182.362H160.304V181.015H159.773V182.362Z" fill="#373D43"/>
<path d="M158.242 184.933H158.772V181.015H158.242V184.933Z" fill="#373D43"/>
<path d="M155.69 184.933H156.22V183.341H155.69V184.933Z" fill="#373D43"/>
<path d="M155.69 182.362H156.22V181.015H155.69V182.362Z" fill="#373D43"/>
<path d="M185.283 176.405H156.197V180.718H185.283V176.405Z" fill="white"/>
<path d="M185.283 176.405V176.152H155.932V180.971H185.549V176.152H185.283V176.405H185.018V180.465H156.463V176.658H185.283V176.405H185.018H185.283Z" fill="#373D43"/>
<path d="M157.838 180.403H158.369V176.485H157.838V180.403Z" fill="#373D43"/>
<path d="M159.895 180.403H160.425V176.485H159.895V180.403Z" fill="#373D43"/>
<path d="M161.952 180.403H162.482V176.485H161.952V180.403Z" fill="#373D43"/>
<path d="M164.009 180.403H164.54V176.485H164.009V180.403Z" fill="#373D43"/>
<path d="M166.066 180.403H166.596V179.056H166.066V180.403Z" fill="#373D43"/>
<path d="M166.066 177.465H166.596V176.485H166.066V177.465Z" fill="#373D43"/>
<path d="M168.123 180.403H168.653V176.485H168.123V180.403Z" fill="#373D43"/>
<path d="M170.18 180.403H170.71V179.179H170.18V180.403Z" fill="#373D43"/>
<path d="M170.18 178.561H170.71V176.485H170.18V178.561Z" fill="#373D43"/>
<path d="M173.907 180.403H174.438V176.485H173.907V180.403Z" fill="#373D43"/>
<path d="M178.407 180.403H178.937V179.179H178.407V180.403Z" fill="#373D43"/>
<path d="M178.407 177.832H178.937V176.485H178.407V177.832Z" fill="#373D43"/>
<path d="M179.949 180.403H180.48V176.485H179.949V180.403Z" fill="#373D43"/>
<path d="M182.521 180.403H183.051V178.811H182.521V180.403Z" fill="#373D43"/>
<path d="M182.521 177.832H183.051V176.485H182.521V177.832Z" fill="#373D43"/>
<path d="M156.946 171.997H185.821V176.31H156.946V171.997" fill="white"/>
<path d="M156.946 171.997V172.25H185.556V176.057H157.211V171.997H156.946V172.25V171.997H156.681V176.562H186.086V171.745H156.681V171.997H156.946" fill="#373D43"/>
<path d="M183.664 175.995H184.195V172.077H183.664V175.995Z" fill="#373D43"/>
<path d="M181.622 175.995H182.153V172.077H181.622V175.995Z" fill="#373D43"/>
<path d="M179.58 175.995H180.111V172.077H179.58V175.995Z" fill="#373D43"/>
<path d="M177.538 175.995H178.069V172.077H177.538V175.995Z" fill="#373D43"/>
<path d="M175.496 175.995H176.027V174.648H175.496V175.995Z" fill="#373D43"/>
<path d="M175.496 173.057H176.027V172.077H175.496V173.057Z" fill="#373D43"/>
<path d="M173.454 175.995H173.985V172.077H173.454V175.995Z" fill="#373D43"/>
<path d="M171.412 175.995H171.943V174.771H171.412V175.995Z" fill="#373D43"/>
<path d="M171.412 174.153H171.943V172.077H171.412V174.153Z" fill="#373D43"/>
<path d="M167.711 175.995H168.242V172.077H167.711V175.995Z" fill="#373D43"/>
<path d="M163.244 175.995H163.775V174.771H163.244V175.995Z" fill="#373D43"/>
<path d="M163.244 173.424H163.775V172.077H163.244V173.424Z" fill="#373D43"/>
<path d="M161.712 175.995H162.243V172.077H161.712V175.995Z" fill="#373D43"/>
<path d="M159.16 175.995H159.691V174.404H159.16V175.995Z" fill="#373D43"/>
<path d="M159.16 173.424H159.691V172.077H159.16V173.424Z" fill="#373D43"/>
<path d="M184.898 167.467H155.812V171.779H184.898V167.467" fill="white"/>
<path d="M184.898 167.467V167.214H155.546V172.032H185.164V167.214H184.898V167.467H184.633V171.527H156.077V167.72H184.898V167.467H184.633H184.898" fill="#373D43"/>
<path d="M157.452 171.465H157.983V167.547H157.452V171.465Z" fill="#373D43"/>
<path d="M159.509 171.465H160.04V167.547H159.509V171.465Z" fill="#373D43"/>
<path d="M161.566 171.465H162.097V167.547H161.566V171.465Z" fill="#373D43"/>
<path d="M163.623 171.465H164.153V167.547H163.623V171.465Z" fill="#373D43"/>
<path d="M165.68 171.465H166.21V170.118H165.68V171.465Z" fill="#373D43"/>
<path d="M165.68 168.527H166.21V167.547H165.68V168.527Z" fill="#373D43"/>
<path d="M167.737 171.465H168.268V167.547H167.737V171.465Z" fill="#373D43"/>
<path d="M169.794 171.465H170.324V170.241H169.794V171.465Z" fill="#373D43"/>
<path d="M169.794 169.623H170.324V167.547H169.794V169.623Z" fill="#373D43"/>
<path d="M173.521 171.465H174.052V167.547H173.521V171.465Z" fill="#373D43"/>
<path d="M178.021 171.465H178.552V170.241H178.021V171.465Z" fill="#373D43"/>
<path d="M178.021 168.894H178.552V167.547H178.021V168.894Z" fill="#373D43"/>
<path d="M179.564 171.465H180.094V167.547H179.564V171.465Z" fill="#373D43"/>
<path d="M182.135 171.465H182.666V169.873H182.135V171.465Z" fill="#373D43"/>
<path d="M182.135 168.894H182.666V167.547H182.135V168.894Z" fill="#373D43"/>
<path d="M153.468 163.059H182.343V167.372H153.468V163.059" fill="white"/>
<path d="M153.467 163.059V163.311H182.077V167.119H153.733V163.059H153.467V163.311V163.059H153.202V167.624H182.608V162.806H153.202V163.059H153.467" fill="#373D43"/>
<path d="M180.186 167.057H180.716V163.139H180.186V167.057Z" fill="#373D43"/>
<path d="M178.144 167.057H178.674V163.139H178.144V167.057Z" fill="#373D43"/>
<path d="M176.102 167.057H176.633V163.139H176.102V167.057Z" fill="#373D43"/>
<path d="M174.06 167.057H174.591V163.139H174.06V167.057Z" fill="#373D43"/>
<path d="M172.018 167.057H172.549V165.71H172.018V167.057Z" fill="#373D43"/>
<path d="M172.018 164.119H172.549V163.139H172.018V164.119Z" fill="#373D43"/>
<path d="M169.976 167.057H170.507V163.139H169.976V167.057Z" fill="#373D43"/>
<path d="M167.934 167.057H168.464V165.833H167.934V167.057Z" fill="#373D43"/>
<path d="M167.934 165.215H168.464V163.138H167.934V165.215Z" fill="#373D43"/>
<path d="M164.233 167.057H164.763V163.139H164.233V167.057Z" fill="#373D43"/>
<path d="M159.766 167.057H160.297V165.833H159.766V167.057Z" fill="#373D43"/>
<path d="M159.766 164.486H160.297V163.139H159.766V164.486Z" fill="#373D43"/>
<path d="M158.235 167.057H158.765V163.139H158.235V167.057Z" fill="#373D43"/>
<path d="M155.682 167.057H156.213V165.466H155.682V167.057Z" fill="#373D43"/>
<path d="M155.682 164.486H156.213V163.139H155.682V164.486Z" fill="#373D43"/>
<path d="M182.455 158.529H153.37V162.842H182.455V158.529" fill="white"/>
<path d="M182.455 158.529V158.276H153.104V163.095H182.721V158.276H182.455V158.529H182.19V162.589H153.635V158.781H182.455V158.529H182.19H182.455" fill="#373D43"/>
<path d="M155.01 162.527H155.541V158.609H155.01V162.527Z" fill="#373D43"/>
<path d="M157.067 162.527H157.597V158.609H157.067V162.527Z" fill="#373D43"/>
<path d="M159.124 162.527H159.654V158.609H159.124V162.527Z" fill="#373D43"/>
<path d="M161.181 162.527H161.711V158.609H161.181V162.527Z" fill="#373D43"/>
<path d="M163.238 162.527H163.768V161.18H163.238V162.527Z" fill="#373D43"/>
<path d="M163.238 159.588H163.768V158.609H163.238V159.588Z" fill="#373D43"/>
<path d="M165.294 162.527H165.825V158.609H165.294V162.527Z" fill="#373D43"/>
<path d="M167.35 162.527H167.881V161.303H167.35V162.527Z" fill="#373D43"/>
<path d="M167.35 160.685H167.881V158.609H167.35V160.685Z" fill="#373D43"/>
<path d="M171.079 162.527H171.61V158.609H171.079V162.527Z" fill="#373D43"/>
<path d="M175.578 162.527H176.109V161.303H175.578V162.527Z" fill="#373D43"/>
<path d="M175.578 159.956H176.109V158.609H175.578V159.956Z" fill="#373D43"/>
<path d="M177.121 162.527H177.652V158.609H177.121V162.527Z" fill="#373D43"/>
<path d="M179.692 162.527H180.223V160.935H179.692V162.527Z" fill="#373D43"/>
<path d="M179.692 159.956H180.223V158.609H179.692V159.956Z" fill="#373D43"/>
<path d="M155.018 154.121H183.893V158.434H155.018V154.121" fill="white"/>
<path d="M155.018 154.121V154.374H183.627V158.181H155.283V154.121H155.018V154.374V154.121H154.753V158.687H184.158V153.868H154.753V154.121H155.018" fill="#373D43"/>
<path d="M181.736 158.119H182.267V154.201H181.736V158.119Z" fill="#373D43"/>
<path d="M179.694 158.119H180.224V154.201H179.694V158.119Z" fill="#373D43"/>
<path d="M177.652 158.119H178.183V154.201H177.652V158.119Z" fill="#373D43"/>
<path d="M175.61 158.119H176.141V154.201H175.61V158.119Z" fill="#373D43"/>
<path d="M173.568 158.119H174.098V156.772H173.568V158.119Z" fill="#373D43"/>
<path d="M173.568 155.181H174.098V154.201H173.568V155.181Z" fill="#373D43"/>
<path d="M171.526 158.119H172.057V154.201H171.526V158.119Z" fill="#373D43"/>
<path d="M169.484 158.119H170.014V156.894H169.484V158.119Z" fill="#373D43"/>
<path d="M169.484 156.277H170.014V154.201H169.484V156.277Z" fill="#373D43"/>
<path d="M165.783 158.119H166.314V154.201H165.783V158.119Z" fill="#373D43"/>
<path d="M161.316 158.119H161.847V156.894H161.316V158.119Z" fill="#373D43"/>
<path d="M161.316 155.548H161.847V154.201H161.316V155.548Z" fill="#373D43"/>
<path d="M159.784 158.119H160.315V154.201H159.784V158.119Z" fill="#373D43"/>
<path d="M157.232 158.119H157.762V156.527H157.232V158.119Z" fill="#373D43"/>
<path d="M157.232 155.548H157.762V154.201H157.232V155.548Z" fill="#373D43"/>
<path d="M183.999 149.591H154.912V153.903H183.999V149.591Z" fill="white"/>
<path d="M183.999 149.591V149.338H154.647V154.156H184.264V149.338H183.999V149.591H183.733V153.651H155.178V149.844H183.999V149.591H183.733H183.999Z" fill="#373D43"/>
<path d="M156.552 153.589H157.083V149.671H156.552V153.589Z" fill="#373D43"/>
<path d="M158.609 153.589H159.139V149.671H158.609V153.589Z" fill="#373D43"/>
<path d="M160.666 153.589H161.197V149.671H160.666V153.589Z" fill="#373D43"/>
<path d="M162.723 153.589H163.253V149.671H162.723V153.589Z" fill="#373D43"/>
<path d="M164.78 153.589H165.311V152.242H164.78V153.589Z" fill="#373D43"/>
<path d="M164.78 150.65H165.311V149.671H164.78V150.65Z" fill="#373D43"/>
<path d="M166.837 153.589H167.367V149.671H166.837V153.589Z" fill="#373D43"/>
<path d="M168.894 153.589H169.424V152.364H168.894V153.589Z" fill="#373D43"/>
<path d="M168.894 151.747H169.424V149.671H168.894V151.747Z" fill="#373D43"/>
<path d="M172.622 153.589H173.152V149.671H172.622V153.589Z" fill="#373D43"/>
<path d="M177.121 153.589H177.652V152.364H177.121V153.589Z" fill="#373D43"/>
<path d="M177.121 151.017H177.652V149.671H177.121V151.017Z" fill="#373D43"/>
<path d="M178.664 153.589H179.195V149.671H178.664V153.589Z" fill="#373D43"/>
<path d="M181.235 153.589H181.766V151.997H181.235V153.589Z" fill="#373D43"/>
<path d="M181.235 151.017H181.766V149.671H181.235V151.017Z" fill="#373D43"/>
<path d="M156.946 145.183H185.821V149.495H156.946V145.183" fill="white"/>
<path d="M156.946 145.183V145.436H185.556V149.243H157.211V145.183H156.946V145.436V145.183H156.681V149.748H186.086V144.93H156.681V145.183H156.946" fill="#373D43"/>
<path d="M183.664 149.181H184.195V145.263H183.664V149.181Z" fill="#373D43"/>
<path d="M181.622 149.181H182.153V145.263H181.622V149.181Z" fill="#373D43"/>
<path d="M179.58 149.181H180.111V145.263H179.58V149.181Z" fill="#373D43"/>
<path d="M177.538 149.181H178.069V145.263H177.538V149.181Z" fill="#373D43"/>
<path d="M175.496 149.181H176.027V147.834H175.496V149.181Z" fill="#373D43"/>
<path d="M175.496 146.242H176.027V145.263H175.496V146.242Z" fill="#373D43"/>
<path d="M173.454 149.181H173.985V145.263H173.454V149.181Z" fill="#373D43"/>
<path d="M171.412 149.181H171.943V147.956H171.412V149.181Z" fill="#373D43"/>
<path d="M171.412 147.339H171.943V145.263H171.412V147.339Z" fill="#373D43"/>
<path d="M167.711 149.181H168.242V145.263H167.711V149.181Z" fill="#373D43"/>
<path d="M163.244 149.181H163.775V147.956H163.244V149.181Z" fill="#373D43"/>
<path d="M163.244 146.609H163.775V145.263H163.244V146.609Z" fill="#373D43"/>
<path d="M161.712 149.181H162.243V145.263H161.712V149.181Z" fill="#373D43"/>
<path d="M159.16 149.181H159.691V147.589H159.16V149.181Z" fill="#373D43"/>
<path d="M159.16 146.609H159.691V145.263H159.16V146.609Z" fill="#373D43"/>
<path d="M183.999 140.608H154.912V144.921H183.999V140.608Z" fill="white"/>
<path d="M183.999 140.608V140.355H154.647V145.174H184.264V140.355H183.999V140.608H183.733V144.668H155.178V140.861H183.999V140.608H183.733H183.999Z" fill="#373D43"/>
<path d="M156.552 144.606H157.083V140.688H156.552V144.606Z" fill="#373D43"/>
<path d="M158.609 144.606H159.139V140.688H158.609V144.606Z" fill="#373D43"/>
<path d="M160.666 144.606H161.197V140.688H160.666V144.606Z" fill="#373D43"/>
<path d="M162.723 144.606H163.253V140.688H162.723V144.606Z" fill="#373D43"/>
<path d="M164.78 144.606H165.311V143.259H164.78V144.606Z" fill="#373D43"/>
<path d="M164.78 141.667H165.311V140.688H164.78V141.667Z" fill="#373D43"/>
<path d="M166.837 144.606H167.367V140.688H166.837V144.606Z" fill="#373D43"/>
<path d="M168.894 144.606H169.424V143.382H168.894V144.606Z" fill="#373D43"/>
<path d="M168.894 142.765H169.424V140.688H168.894V142.765Z" fill="#373D43"/>
<path d="M172.622 144.606H173.152V140.688H172.622V144.606Z" fill="#373D43"/>
<path d="M177.121 144.606H177.652V143.382H177.121V144.606Z" fill="#373D43"/>
<path d="M177.121 142.035H177.652V140.688H177.121V142.035Z" fill="#373D43"/>
<path d="M178.664 144.606H179.195V140.688H178.664V144.606Z" fill="#373D43"/>
<path d="M181.235 144.606H181.766V143.014H181.235V144.606Z" fill="#373D43"/>
<path d="M181.235 142.035H181.766V140.688H181.235V142.035Z" fill="#373D43"/>
<path d="M153.475 136.201H182.35V140.513H153.475V136.201Z" fill="white"/>
<path d="M153.475 136.201V136.453H182.085V140.26H153.741V136.201H153.475V136.453V136.201H153.21V140.766H182.615V135.948H153.21V136.201H153.475Z" fill="#373D43"/>
<path d="M180.193 140.199H180.724V136.28H180.193V140.199Z" fill="#373D43"/>
<path d="M178.151 140.199H178.682V136.28H178.151V140.199Z" fill="#373D43"/>
<path d="M176.109 140.199H176.64V136.28H176.109V140.199Z" fill="#373D43"/>
<path d="M174.067 140.199H174.598V136.28H174.067V140.199Z" fill="#373D43"/>
<path d="M172.025 140.199H172.556V138.851H172.025V140.199Z" fill="#373D43"/>
<path d="M172.025 137.259H172.556V136.28H172.025V137.259Z" fill="#373D43"/>
<path d="M169.983 140.199H170.514V136.28H169.983V140.199Z" fill="#373D43"/>
<path d="M167.941 140.199H168.472V138.974H167.941V140.199Z" fill="#373D43"/>
<path d="M167.941 138.357H168.472V136.28H167.941V138.357Z" fill="#373D43"/>
<path d="M164.24 140.199H164.771V136.28H164.24V140.199Z" fill="#373D43"/>
<path d="M159.773 140.199H160.304V138.974H159.773V140.199Z" fill="#373D43"/>
<path d="M159.773 137.627H160.304V136.28H159.773V137.627Z" fill="#373D43"/>
<path d="M158.242 140.199H158.772V136.28H158.242V140.199Z" fill="#373D43"/>
<path d="M155.69 140.199H156.22V138.606H155.69V140.199Z" fill="#373D43"/>
<path d="M155.69 137.627H156.22V136.28H155.69V137.627Z" fill="#373D43"/>
<path d="M185.283 131.67H156.197V135.983H185.283V131.67Z" fill="white"/>
<path d="M185.283 131.67V131.417H155.932V136.235H185.549V131.417H185.283V131.67H185.018V135.73H156.463V131.923H185.283V131.67H185.018H185.283Z" fill="#373D43"/>
<path d="M157.838 135.668H158.369V131.75H157.838V135.668Z" fill="#373D43"/>
<path d="M159.895 135.668H160.425V131.75H159.895V135.668Z" fill="#373D43"/>
<path d="M161.952 135.668H162.482V131.75H161.952V135.668Z" fill="#373D43"/>
<path d="M164.009 135.668H164.54V131.75H164.009V135.668Z" fill="#373D43"/>
<path d="M166.066 135.668H166.596V134.321H166.066V135.668Z" fill="#373D43"/>
<path d="M166.066 132.729H166.596V131.75H166.066V132.729Z" fill="#373D43"/>
<path d="M168.123 135.668H168.653V131.75H168.123V135.668Z" fill="#373D43"/>
<path d="M170.18 135.668H170.71V134.444H170.18V135.668Z" fill="#373D43"/>
<path d="M170.18 133.826H170.71V131.75H170.18V133.826Z" fill="#373D43"/>
<path d="M173.907 135.668H174.438V131.75H173.907V135.668Z" fill="#373D43"/>
<path d="M178.407 135.668H178.937V134.444H178.407V135.668Z" fill="#373D43"/>
<path d="M178.407 133.097H178.937V131.75H178.407V133.097Z" fill="#373D43"/>
<path d="M179.949 135.668H180.48V131.75H179.949V135.668Z" fill="#373D43"/>
<path d="M182.521 135.668H183.051V134.076H182.521V135.668Z" fill="#373D43"/>
<path d="M182.521 133.097H183.051V131.75H182.521V133.097Z" fill="#373D43"/>
<path d="M156.946 127.262H185.821V131.575H156.946V127.262" fill="white"/>
<path d="M156.946 127.262V127.515H185.556V131.322H157.211V127.262H156.946V127.515V127.262H156.681V131.828H186.086V127.009H156.681V127.262H156.946" fill="#373D43"/>
<path d="M183.664 131.26H184.195V127.342H183.664V131.26Z" fill="#373D43"/>
<path d="M181.622 131.26H182.153V127.342H181.622V131.26Z" fill="#373D43"/>
<path d="M179.58 131.26H180.111V127.342H179.58V131.26Z" fill="#373D43"/>
<path d="M177.538 131.26H178.069V127.342H177.538V131.26Z" fill="#373D43"/>
<path d="M175.496 131.26H176.027V129.913H175.496V131.26Z" fill="#373D43"/>
<path d="M175.496 128.322H176.027V127.342H175.496V128.322Z" fill="#373D43"/>
<path d="M173.454 131.26H173.985V127.342H173.454V131.26Z" fill="#373D43"/>
<path d="M171.412 131.26H171.943V130.036H171.412V131.26Z" fill="#373D43"/>
<path d="M171.412 129.419H171.943V127.342H171.412V129.419Z" fill="#373D43"/>
<path d="M167.711 131.26H168.242V127.342H167.711V131.26Z" fill="#373D43"/>
<path d="M163.244 131.26H163.775V130.036H163.244V131.26Z" fill="#373D43"/>
<path d="M163.244 128.689H163.775V127.342H163.244V128.689Z" fill="#373D43"/>
<path d="M161.712 131.26H162.243V127.342H161.712V131.26Z" fill="#373D43"/>
<path d="M159.16 131.26H159.691V129.668H159.16V131.26Z" fill="#373D43"/>
<path d="M159.16 128.689H159.691V127.342H159.16V128.689Z" fill="#373D43"/>
<path d="M184.898 122.732H155.812V127.045H184.898V122.732Z" fill="white"/>
<path d="M184.898 122.732V122.479H155.546V127.297H185.164V122.479H184.898V122.732H184.633V126.792H156.077V122.984H184.898V122.732H184.633H184.898Z" fill="#373D43"/>
<path d="M157.452 126.73H157.983V122.812H157.452V126.73Z" fill="#373D43"/>
<path d="M159.509 126.73H160.04V122.812H159.509V126.73Z" fill="#373D43"/>
<path d="M161.566 126.73H162.097V122.812H161.566V126.73Z" fill="#373D43"/>
<path d="M163.623 126.73H164.153V122.812H163.623V126.73Z" fill="#373D43"/>
<path d="M165.68 126.73H166.21V125.383H165.68V126.73Z" fill="#373D43"/>
<path d="M165.68 123.792H166.21V122.812H165.68V123.792Z" fill="#373D43"/>
<path d="M167.737 126.73H168.268V122.812H167.737V126.73Z" fill="#373D43"/>
<path d="M169.794 126.73H170.324V125.505H169.794V126.73Z" fill="#373D43"/>
<path d="M169.794 124.888H170.324V122.812H169.794V124.888Z" fill="#373D43"/>
<path d="M173.521 126.73H174.052V122.812H173.521V126.73Z" fill="#373D43"/>
<path d="M178.021 126.73H178.552V125.505H178.021V126.73Z" fill="#373D43"/>
<path d="M178.021 124.159H178.552V122.812H178.021V124.159Z" fill="#373D43"/>
<path d="M179.564 126.73H180.094V122.812H179.564V126.73Z" fill="#373D43"/>
<path d="M182.135 126.73H182.666V125.138H182.135V126.73Z" fill="#373D43"/>
<path d="M182.135 124.159H182.666V122.812H182.135V124.159Z" fill="#373D43"/>
<path d="M153.468 118.324H182.343V122.637H153.468V118.324" fill="white"/>
<path d="M153.467 118.324V118.577H182.077V122.385H153.733V118.324H153.467V118.577V118.324H153.202V122.89H182.608V118.071H153.202V118.324H153.467" fill="#373D43"/>
<path d="M180.186 122.322H180.716V118.404H180.186V122.322Z" fill="#373D43"/>
<path d="M178.144 122.322H178.674V118.404H178.144V122.322Z" fill="#373D43"/>
<path d="M176.102 122.322H176.633V118.404H176.102V122.322Z" fill="#373D43"/>
<path d="M174.06 122.322H174.591V118.404H174.06V122.322Z" fill="#373D43"/>
<path d="M172.018 122.322H172.549V120.975H172.018V122.322Z" fill="#373D43"/>
<path d="M172.018 119.383H172.549V118.404H172.018V119.383Z" fill="#373D43"/>
<path d="M169.976 122.322H170.507V118.404H169.976V122.322Z" fill="#373D43"/>
<path d="M167.934 122.322H168.464V121.098H167.934V122.322Z" fill="#373D43"/>
<path d="M167.934 120.481H168.464V118.404H167.934V120.481Z" fill="#373D43"/>
<path d="M164.233 122.322H164.763V118.404H164.233V122.322Z" fill="#373D43"/>
<path d="M159.766 122.322H160.297V121.098H159.766V122.322Z" fill="#373D43"/>
<path d="M159.766 119.751H160.297V118.404H159.766V119.751Z" fill="#373D43"/>
<path d="M158.235 122.322H158.765V118.404H158.235V122.322Z" fill="#373D43"/>
<path d="M155.682 122.322H156.213V120.73H155.682V122.322Z" fill="#373D43"/>
<path d="M155.682 119.751H156.213V118.404H155.682V119.751Z" fill="#373D43"/>
<path d="M182.455 113.794H153.37V118.107H182.455V113.794Z" fill="white"/>
<path d="M182.455 113.794V113.541H153.104V118.359H182.721V113.541H182.455V113.794H182.19V117.854H153.635V114.047H182.455V113.794H182.19H182.455Z" fill="#373D43"/>
<path d="M155.01 117.792H155.541V113.874H155.01V117.792Z" fill="#373D43"/>
<path d="M157.067 117.792H157.597V113.874H157.067V117.792Z" fill="#373D43"/>
<path d="M159.124 117.792H159.654V113.874H159.124V117.792Z" fill="#373D43"/>
<path d="M161.181 117.792H161.711V113.874H161.181V117.792Z" fill="#373D43"/>
<path d="M163.238 117.792H163.768V116.445H163.238V117.792Z" fill="#373D43"/>
<path d="M163.238 114.853H163.768V113.874H163.238V114.853Z" fill="#373D43"/>
<path d="M165.294 117.792H165.825V113.874H165.294V117.792Z" fill="#373D43"/>
<path d="M167.35 117.792H167.881V116.568H167.35V117.792Z" fill="#373D43"/>
<path d="M167.35 115.95H167.881V113.874H167.35V115.95Z" fill="#373D43"/>
<path d="M171.079 117.792H171.61V113.874H171.079V117.792Z" fill="#373D43"/>
<path d="M175.578 117.792H176.109V116.568H175.578V117.792Z" fill="#373D43"/>
<path d="M175.578 115.22H176.109V113.874H175.578V115.22Z" fill="#373D43"/>
<path d="M177.121 117.792H177.652V113.874H177.121V117.792Z" fill="#373D43"/>
<path d="M179.692 117.792H180.223V116.2H179.692V117.792Z" fill="#373D43"/>
<path d="M179.692 115.22H180.223V113.874H179.692V115.22Z" fill="#373D43"/>
<path d="M155.018 109.386H183.893V113.699H155.018V109.386" fill="white"/>
<path d="M155.018 109.386V109.639H183.627V113.446H155.283V109.386H155.018V109.639V109.386H154.753V113.951H184.158V109.134H154.753V109.386H155.018" fill="#373D43"/>
<path d="M181.736 113.384H182.267V109.466H181.736V113.384Z" fill="#373D43"/>
<path d="M179.694 113.384H180.224V109.466H179.694V113.384Z" fill="#373D43"/>
<path d="M177.652 113.384H178.183V109.466H177.652V113.384Z" fill="#373D43"/>
<path d="M175.61 113.384H176.141V109.466H175.61V113.384Z" fill="#373D43"/>
<path d="M173.568 113.384H174.098V112.037H173.568V113.384Z" fill="#373D43"/>
<path d="M173.568 110.446H174.098V109.466H173.568V110.446Z" fill="#373D43"/>
<path d="M171.526 113.384H172.057V109.466H171.526V113.384Z" fill="#373D43"/>
<path d="M169.484 113.384H170.014V112.16H169.484V113.384Z" fill="#373D43"/>
<path d="M169.484 111.542H170.014V109.466H169.484V111.542Z" fill="#373D43"/>
<path d="M165.783 113.384H166.314V109.466H165.783V113.384Z" fill="#373D43"/>
<path d="M161.316 113.384H161.847V112.16H161.316V113.384Z" fill="#373D43"/>
<path d="M161.316 110.813H161.847V109.466H161.316V110.813Z" fill="#373D43"/>
<path d="M159.784 113.384H160.315V109.466H159.784V113.384Z" fill="#373D43"/>
<path d="M157.232 113.384H157.762V111.793H157.232V113.384Z" fill="#373D43"/>
<path d="M157.232 110.813H157.762V109.466H157.232V110.813Z" fill="#373D43"/>
<path d="M183.999 104.856H154.912V109.168H183.999V104.856Z" fill="white"/>
<path d="M183.999 104.856V104.603H154.647V109.421H184.264V104.603H183.999V104.856H183.733V108.916H155.178V105.108H183.999V104.856H183.733H183.999Z" fill="#373D43"/>
<path d="M156.552 108.854H157.083V104.936H156.552V108.854Z" fill="#373D43"/>
<path d="M158.609 108.854H159.139V104.936H158.609V108.854Z" fill="#373D43"/>
<path d="M160.666 108.854H161.197V104.936H160.666V108.854Z" fill="#373D43"/>
<path d="M162.723 108.854H163.253V104.936H162.723V108.854Z" fill="#373D43"/>
<path d="M164.78 108.854H165.311V107.507H164.78V108.854Z" fill="#373D43"/>
<path d="M164.78 105.916H165.311V104.936H164.78V105.916Z" fill="#373D43"/>
<path d="M166.837 108.854H167.367V104.936H166.837V108.854Z" fill="#373D43"/>
<path d="M168.894 108.854H169.424V107.629H168.894V108.854Z" fill="#373D43"/>
<path d="M168.894 107.012H169.424V104.935H168.894V107.012Z" fill="#373D43"/>
<path d="M172.622 108.854H173.152V104.936H172.622V108.854Z" fill="#373D43"/>
<path d="M177.121 108.854H177.652V107.629H177.121V108.854Z" fill="#373D43"/>
<path d="M177.121 106.282H177.652V104.936H177.121V106.282Z" fill="#373D43"/>
<path d="M178.664 108.854H179.195V104.936H178.664V108.854Z" fill="#373D43"/>
<path d="M181.235 108.854H181.766V107.262H181.235V108.854Z" fill="#373D43"/>
<path d="M181.235 106.282H181.766V104.936H181.235V106.282Z" fill="#373D43"/>
<path d="M156.946 100.448H185.821V104.761H156.946V100.448" fill="white"/>
<path d="M156.946 100.448V100.7H185.556V104.508H157.211V100.448H156.946V100.7V100.448H156.681V105.014H186.086V100.195H156.681V100.448H156.946" fill="#373D43"/>
<path d="M183.664 104.446H184.195V100.528H183.664V104.446Z" fill="#373D43"/>
<path d="M181.622 104.446H182.153V100.528H181.622V104.446Z" fill="#373D43"/>
<path d="M179.58 104.446H180.111V100.528H179.58V104.446Z" fill="#373D43"/>
<path d="M177.538 104.446H178.069V100.528H177.538V104.446Z" fill="#373D43"/>
<path d="M175.496 104.446H176.027V103.099H175.496V104.446Z" fill="#373D43"/>
<path d="M175.496 101.508H176.027V100.528H175.496V101.508Z" fill="#373D43"/>
<path d="M173.454 104.446H173.985V100.528H173.454V104.446Z" fill="#373D43"/>
<path d="M171.412 104.446H171.943V103.222H171.412V104.446Z" fill="#373D43"/>
<path d="M171.412 102.604H171.943V100.528H171.412V102.604Z" fill="#373D43"/>
<path d="M167.711 104.446H168.242V100.528H167.711V104.446Z" fill="#373D43"/>
<path d="M163.244 104.446H163.775V103.222H163.244V104.446Z" fill="#373D43"/>
<path d="M163.244 101.875H163.775V100.528H163.244V101.875Z" fill="#373D43"/>
<path d="M161.712 104.446H162.243V100.528H161.712V104.446Z" fill="#373D43"/>
<path d="M159.16 104.446H159.691V102.854H159.16V104.446Z" fill="#373D43"/>
<path d="M159.16 101.875H159.691V100.528H159.16V101.875Z" fill="#373D43"/>
<path d="M81.4608 115.327C79.6045 124.375 72.091 130.592 64.6789 129.212C57.2667 127.834 52.7628 119.38 54.6186 110.333C56.475 101.284 63.9884 95.0674 71.4006 96.4468C78.8132 97.8261 83.3166 106.279 81.4608 115.327Z" fill="#67E499"/>
<path d="M81.4606 115.327L81.2 115.279C80.369 119.332 78.3884 122.807 75.7992 125.262C73.2095 127.718 70.0184 129.152 66.7568 129.152C66.0829 129.152 65.4057 129.091 64.7296 128.965C61.6659 128.394 59.107 126.586 57.3042 123.999C55.5025 121.413 54.4661 118.049 54.4661 114.4C54.4661 113.089 54.5998 111.742 54.879 110.381C55.71 106.327 57.6906 102.853 60.2798 100.397C62.8695 97.9408 66.0606 96.5074 69.3222 96.5079C69.9961 96.5079 70.6733 96.569 71.3494 96.6949C74.4131 97.2655 76.972 99.073 78.7748 101.66C80.5765 104.247 81.6129 107.61 81.6129 111.26C81.6129 112.57 81.4792 113.918 81.2 115.279L81.4606 115.327L81.7212 115.376C82.0067 113.982 82.1436 112.603 82.1436 111.26C82.1431 107.519 81.0833 104.061 79.2168 101.381C77.352 98.7015 74.6715 96.7975 71.4513 96.1991C70.7412 96.0666 70.0296 96.0024 69.3222 96.0024C65.8939 96.003 62.574 97.5071 59.9051 100.039C57.2352 102.572 55.2096 106.135 54.3578 110.284C54.0723 111.677 53.9354 113.057 53.9354 114.4C53.936 118.14 54.9957 121.598 56.8622 124.279C58.727 126.958 61.4075 128.862 64.6277 129.461C65.3378 129.593 66.0494 129.657 66.7568 129.657C70.1851 129.657 73.5051 128.153 76.1739 125.62C78.8438 123.088 80.8694 119.524 81.7212 115.376L81.4606 115.327" fill="#373D43"/>
<path d="M133.016 97.0896C133.016 97.0896 143.91 81.0654 156.604 83.6598C165.059 85.3874 160.091 100.71 160.091 100.71" fill="#67E499"/>
<path d="M133.239 97.2271C133.239 97.2266 133.273 97.1761 133.343 97.0765C133.869 96.3335 136.342 92.9572 140.009 89.7776C143.676 86.5944 148.529 83.6244 153.786 83.6285C154.695 83.6285 155.616 83.7164 156.549 83.907C158.411 84.2916 159.564 85.3353 160.291 86.7647C161.014 88.193 161.276 90.0096 161.276 91.8529C161.276 94.0187 160.916 96.2188 160.556 97.8741C160.376 98.702 160.196 99.3934 160.061 99.8776C159.994 100.119 159.938 100.309 159.899 100.439C159.859 100.568 159.838 100.635 159.838 100.635L160.345 100.784C160.348 100.771 161.805 96.288 161.806 91.8529C161.805 89.9651 161.544 88.0818 160.769 86.5453C159.999 85.0093 158.684 83.8226 156.66 83.4127C155.691 83.2145 154.731 83.123 153.786 83.123C147.946 83.1276 142.71 86.6035 138.925 90.05C135.14 93.5006 132.801 96.9421 132.794 96.9522L133.239 97.2271" fill="#373D43"/>
<path d="M157.256 102.211L157.292 102.217L158.071 102.028C158.071 102.028 162.927 87.9782 155.853 88.1541C149.882 88.3022 141.849 101.426 139.492 105.511C144.092 102.454 150.492 101.088 157.256 102.211" fill="#373D43"/>
<path d="M157.256 102.211L157.204 102.458L157.24 102.465L157.3 102.477L158.277 102.238L158.323 102.107C158.326 102.094 159.959 97.3858 159.962 93.3944C159.961 91.961 159.754 90.6135 159.15 89.5915C158.847 89.081 158.44 88.6529 157.912 88.3573C157.384 88.0606 156.741 87.8988 155.984 87.8993L155.846 87.9014C154.25 87.9448 152.59 88.8303 150.937 90.1611C148.46 92.1616 145.99 95.1978 143.91 98.1212C141.831 101.044 140.146 103.853 139.259 105.389L138.712 106.337L139.643 105.718C143.117 103.411 147.642 102.074 152.58 102.074C154.091 102.074 155.641 102.199 157.211 102.459L157.256 102.211L157.204 102.458L157.256 102.211L157.302 101.962C155.702 101.696 154.121 101.568 152.58 101.568C147.541 101.569 142.912 102.931 139.34 105.304L139.491 105.511L139.724 105.633C140.899 103.597 143.493 99.3019 146.528 95.5091C148.045 93.6133 149.674 91.8427 151.281 90.5468C152.887 89.2473 154.47 88.4371 155.86 88.4063L155.984 88.4048C156.664 88.4053 157.204 88.5468 157.642 88.7924C158.297 89.1604 158.742 89.776 159.029 90.5776C159.314 91.3777 159.431 92.3547 159.431 93.3944C159.431 95.3272 159.029 97.4717 158.625 99.1275C158.423 99.9559 158.222 100.663 158.07 101.161C157.994 101.411 157.931 101.608 157.887 101.743C157.843 101.878 157.819 101.949 157.819 101.949L158.071 102.028L158.005 101.783L157.227 101.973L157.292 102.217L157.344 101.97L157.308 101.963L157.305 101.962L157.302 101.962L157.256 102.211" fill="#373D43"/>
<path d="M104.673 170.621L101.694 183.132C100.768 187.022 97.1367 189.784 92.9475 189.784H92.9469C88.7582 189.784 85.1273 187.022 84.2007 183.132L78.958 161.113" fill="#373D43"/>
<path d="M104.414 170.565L101.435 183.076C100.536 186.851 97.0125 189.531 92.9474 189.531H92.9469C88.8823 189.531 85.3586 186.851 84.4596 183.076L79.2169 161.057L78.699 161.169L83.9422 183.188C84.8958 187.194 88.6345 190.037 92.9469 190.037H92.9474C97.2603 190.037 100.998 187.194 101.953 183.188L104.932 170.677L104.414 170.565Z" fill="#373D43"/>
<path d="M150.18 170.621L147.19 183.175C146.27 187.041 142.663 189.784 138.501 189.784C134.297 189.784 130.665 186.985 129.787 183.069L126.804 169.752" fill="#373D43"/>
<path d="M149.921 170.565L146.932 183.119C146.039 186.87 142.539 189.531 138.501 189.531C134.422 189.531 130.898 186.816 130.047 183.016L127.063 169.7L126.544 169.805L129.528 183.121C130.431 187.154 134.171 190.037 138.501 190.037C142.787 190.037 146.501 187.212 147.449 183.231L150.439 170.677L149.921 170.565" fill="#373D43"/>
<path d="M176.425 133.201C176.425 148.484 167.934 162.172 154.536 171.388C143.604 178.908 129.406 183.449 113.888 183.449C79.3503 183.449 51.3512 160.952 51.3512 133.201C51.3512 105.451 79.3503 82.9537 113.888 82.9537C148.426 82.9537 176.425 105.451 176.425 133.201" fill="#67E499"/>
<path d="M176.425 133.201H176.159C176.159 148.392 167.721 162.005 154.38 171.183C143.496 178.67 129.352 183.196 113.888 183.196C96.6797 183.197 81.1051 177.591 69.8391 168.539C58.5726 159.485 51.6169 146.994 51.6164 133.201C51.6169 119.409 58.5726 106.918 69.8391 97.864C81.1051 88.8117 96.6797 83.2064 113.888 83.2064C131.096 83.2064 146.671 88.8117 157.937 97.864C169.204 106.918 176.159 119.409 176.159 133.201H176.425H176.69C176.69 119.243 169.647 106.61 158.279 97.4778C146.911 88.3441 131.218 82.7015 113.888 82.701C96.5582 82.7015 80.8647 88.3441 69.4968 97.4778C58.1295 106.61 51.0857 119.243 51.0857 133.201C51.0857 147.16 58.1295 159.793 69.4968 168.925C80.8647 178.058 96.5582 183.702 113.888 183.702C129.461 183.702 143.712 179.145 154.691 171.593C168.146 162.34 176.69 148.576 176.69 133.201H176.425Z" fill="#373D43"/>
<path d="M164.714 157.494C161.408 161.941 157.222 165.919 152.347 169.273C149.118 171.494 145.587 173.441 141.809 175.068L142.028 175.529C145.837 173.888 149.399 171.924 152.658 169.682C157.577 166.298 161.806 162.281 165.147 157.785L164.714 157.494" fill="#373D43"/>
<path d="M171.708 144.208C170.914 146.914 169.832 149.531 168.492 152.037Z" fill="white"/>
<path d="M171.453 144.14C170.664 146.829 169.588 149.43 168.255 151.922L168.728 152.152C170.077 149.631 171.165 146.999 171.964 144.276L171.453 144.14" fill="#373D43"/>
<path d="M64.0123 107.674C65.969 105.216 68.2 102.911 70.6714 100.788L70.3158 100.413C67.8211 102.556 65.5672 104.884 63.5894 107.369L64.0123 107.674Z" fill="#373D43"/>
<path d="M61.0516 154.557C57.0162 148.135 54.7459 140.882 54.7454 133.201C54.7459 125.515 57.0199 118.256 61.0611 111.831L60.6058 111.571C56.519 118.068 54.2147 125.42 54.2147 133.201C54.2147 140.977 56.5153 148.323 60.5963 154.816L61.0516 154.557" fill="#373D43"/>
<path d="M141.809 175.068C133.494 178.65 123.987 180.682 113.888 180.682C102.335 180.683 91.5575 178.023 82.4525 173.427L82.2036 173.873C91.3872 178.508 102.249 181.188 113.888 181.188C124.062 181.188 133.643 179.141 142.028 175.529L141.809 175.068Z" fill="#373D43"/>
<path d="M142.258 105.582C142.26 107.013 141.93 108.305 141.415 109.22C141.158 109.677 140.855 110.038 140.534 110.279C140.213 110.52 139.88 110.641 139.536 110.642C139.224 110.641 138.924 110.542 138.63 110.345C138.19 110.049 137.78 109.528 137.465 108.843C137.15 108.158 136.929 107.315 136.848 106.386L136.32 106.428C136.434 107.733 136.807 108.888 137.358 109.738C137.635 110.162 137.957 110.51 138.323 110.757C138.688 111.004 139.101 111.148 139.536 111.147C140.017 111.148 140.47 110.972 140.863 110.676C141.454 110.229 141.928 109.517 142.263 108.639C142.597 107.759 142.789 106.711 142.789 105.582H142.258" fill="#373D43"/>
<path d="M157.691 104.315C157.692 105.365 157.45 106.313 157.075 106.978C156.888 107.311 156.669 107.571 156.441 107.743C156.211 107.914 155.981 107.997 155.743 107.997C155.528 107.997 155.32 107.929 155.112 107.789C154.8 107.58 154.501 107.203 154.272 106.703C154.042 106.204 153.88 105.585 153.82 104.904L153.291 104.946C153.378 105.922 153.655 106.786 154.071 107.427C154.28 107.747 154.524 108.012 154.805 108.202C155.085 108.391 155.406 108.503 155.743 108.503C156.117 108.503 156.469 108.366 156.77 108.139C157.221 107.798 157.577 107.26 157.828 106.601C158.079 105.942 158.222 105.157 158.222 104.315H157.691Z" fill="#373D43"/>
<path d="M126.773 86.9693C125.532 87.3853 124.536 87.7881 123.753 88.1561C123.153 88.4376 122.67 88.6974 122.298 88.9188C121.506 88.8278 120.71 88.75 119.909 88.6893C117.931 88.524 115.921 88.4422 113.888 88.4422C104.755 88.4422 96.096 90.0924 88.314 93.0552C86.9586 93.5708 85.6308 94.1293 84.3301 94.7232C86.8179 92.2364 89.6009 90.4305 91.825 89.2306C98.6655 87.0431 106.106 85.8432 113.888 85.8432C118.308 85.8432 122.616 86.2329 126.773 86.9693" fill="white"/>
<path d="M126.773 86.9694L126.685 86.7308C125.435 87.1498 124.429 87.5562 123.636 87.9297C123.028 88.2147 122.538 88.4781 122.158 88.704L122.298 88.9188L122.33 88.6676C121.535 88.5766 120.735 88.4983 119.931 88.4371L119.933 88.4376C117.947 88.2718 115.929 88.1895 113.888 88.1895C104.722 88.1895 96.0293 89.8458 88.2154 92.8207C86.8547 93.3383 85.5211 93.8993 84.2151 94.4952L84.3303 94.7232L84.5224 94.8975C86.9858 92.4346 89.7486 90.6413 91.9562 89.4505L91.8252 89.2307L91.9096 89.4702C98.7225 87.2913 106.135 86.096 113.888 86.096C118.292 86.096 122.583 86.4841 126.724 87.2175L126.773 86.9694L126.685 86.7308L126.773 86.9694L126.821 86.7207C122.649 85.9817 118.325 85.5905 113.888 85.5905C106.078 85.5905 98.6084 86.795 91.7408 88.9911L91.7164 88.9987L91.6946 89.0108C89.4535 90.2198 86.6499 92.0383 84.1381 94.5488L83.1394 95.547L84.4449 94.9511C85.7403 94.3598 87.0633 93.8033 88.4123 93.2903C96.163 90.3391 104.789 88.6949 113.888 88.6949C115.914 88.6949 117.916 88.7768 119.886 88.941H119.887H119.888C120.685 89.0017 121.478 89.079 122.266 89.1695L122.359 89.1801L122.438 89.1331C122.802 88.9168 123.277 88.661 123.87 88.383H123.871C124.642 88.0201 125.628 87.6203 126.861 87.2074L127.798 86.8935L126.821 86.7207L126.773 86.9694" fill="#373D43"/>
<path d="M123.753 88.1561L119.91 88.6893C117.931 88.524 115.921 88.4422 113.888 88.4422C104.755 88.4422 96.096 90.0924 88.314 93.0553C89.551 92.189 90.7519 91.4657 91.825 90.8849C98.6656 88.702 106.106 87.498 113.888 87.498C117.244 87.498 120.537 87.7275 123.753 88.1561" fill="#373D43"/>
<path d="M123.753 88.1561L123.715 87.9064L119.871 88.4391L119.91 88.6893L119.933 88.4376C117.947 88.2718 115.929 88.1894 113.888 88.1894C104.722 88.1894 96.0291 89.8457 88.2153 92.8207L88.314 93.0553L88.4711 93.2589C89.6991 92.3992 90.891 91.681 91.9561 91.1048L91.825 90.8849L91.9094 91.1245C98.7229 88.9501 106.135 87.7507 113.888 87.7507C117.232 87.7507 120.512 87.9792 123.716 88.4068L123.753 88.1561L123.715 87.9064L123.753 88.1561L123.79 87.9059C120.562 87.4758 117.257 87.2453 113.888 87.2453C106.078 87.2453 98.6083 88.4538 91.7406 90.6453L91.7162 90.6534L91.6939 90.6656C90.6124 91.2504 89.403 91.9792 88.1569 92.8516L86.4805 94.0257L88.4122 93.2903C96.1629 90.3391 104.789 88.6949 113.888 88.6949C115.913 88.6949 117.916 88.7768 119.886 88.941L119.917 88.9435L125.63 88.1515L123.79 87.9059L123.753 88.1561" fill="#373D43"/>
<path d="M163.378 126.853C163.378 135.037 160.417 141.671 156.763 141.671C153.111 141.671 150.148 135.037 150.148 126.853C150.148 118.668 153.111 112.034 156.763 112.034C160.417 112.034 163.378 118.668 163.378 126.853Z" fill="#373D43"/>
<path d="M163.378 126.853H163.112C163.113 130.915 162.375 134.592 161.197 137.232C160.607 138.552 159.909 139.611 159.151 140.327C158.391 141.046 157.589 141.418 156.763 141.419C155.938 141.418 155.136 141.046 154.376 140.327C153.238 139.252 152.237 137.407 151.533 135.068C150.828 132.729 150.414 129.899 150.414 126.853C150.413 122.79 151.151 119.112 152.33 116.473C152.919 115.153 153.618 114.094 154.376 113.378C155.136 112.659 155.938 112.287 156.763 112.287C157.589 112.287 158.391 112.659 159.151 113.378C160.289 114.453 161.289 116.298 161.993 118.637C162.698 120.975 163.112 123.805 163.112 126.853H163.378H163.643C163.643 122.731 162.9 118.999 161.685 116.275C161.076 114.913 160.35 113.802 159.525 113.019C158.702 112.238 157.765 111.781 156.763 111.781C155.762 111.781 154.825 112.238 154.001 113.019C152.765 114.194 151.746 116.106 151.023 118.497C150.302 120.889 149.883 123.761 149.883 126.853C149.884 130.974 150.627 134.706 151.842 137.43C152.45 138.792 153.176 139.903 154.001 140.686C154.825 141.467 155.762 141.924 156.763 141.924C157.765 141.924 158.702 141.467 159.525 140.686C160.762 139.512 161.78 137.599 162.503 135.207C163.224 132.816 163.643 129.943 163.643 126.853H163.378" fill="#373D43"/>
<path d="M176.875 122.175C176.875 130.359 169.909 136.993 161.316 136.993C152.723 136.993 145.757 130.359 145.757 122.175C145.757 113.99 152.723 107.355 161.316 107.355C169.909 107.355 176.875 113.99 176.875 122.175Z" fill="#67E499"/>
<path d="M176.875 122.175H176.61C176.61 126.198 174.898 129.838 172.13 132.474C169.362 135.11 165.54 136.74 161.316 136.74C157.092 136.74 153.27 135.11 150.502 132.474C147.734 129.838 146.022 126.198 146.022 122.175C146.022 118.152 147.734 114.511 150.502 111.875C153.27 109.238 157.092 107.609 161.316 107.608C165.54 107.609 169.362 109.238 172.13 111.875C174.898 114.511 176.609 118.152 176.61 122.175H176.875H177.141C177.14 113.851 170.056 107.103 161.316 107.103C152.577 107.103 145.491 113.851 145.491 122.175C145.491 130.498 152.577 137.246 161.316 137.246C170.056 137.246 177.14 130.498 177.141 122.175H176.875Z" fill="#373D43"/>
<path d="M181.132 122.175C181.132 130.359 174.166 136.993 165.573 136.993C156.98 136.993 150.014 130.359 150.014 122.175C150.014 113.99 156.98 107.355 165.573 107.355C174.166 107.355 181.132 113.99 181.132 122.175Z" fill="#67E499"/>
<path d="M181.132 122.175H180.867C180.867 126.198 179.155 129.838 176.388 132.474C173.619 135.11 169.798 136.74 165.573 136.74C161.349 136.74 157.527 135.11 154.759 132.474C151.991 129.838 150.279 126.198 150.279 122.175C150.279 118.152 151.991 114.511 154.759 111.875C157.527 109.238 161.349 107.609 165.573 107.608C169.798 107.609 173.619 109.238 176.388 111.875C179.155 114.511 180.867 118.152 180.867 122.175H181.132H181.397C181.397 113.851 174.313 107.103 165.573 107.103C156.833 107.103 149.749 113.851 149.749 122.175C149.749 130.498 156.833 137.246 165.573 137.246C174.313 137.246 181.397 130.498 181.397 122.175H181.132Z" fill="#373D43"/>
<path d="M164.355 122.398C164.355 125.24 162.889 127.544 161.081 127.544C159.272 127.544 157.806 125.24 157.806 122.398C157.806 119.557 159.272 117.252 161.081 117.252C162.889 117.252 164.355 119.557 164.355 122.398Z" fill="#373D43"/>
<path d="M164.355 122.398H164.09C164.09 123.777 163.732 125.023 163.169 125.906C162.888 126.348 162.558 126.697 162.203 126.933C161.848 127.168 161.473 127.291 161.081 127.292C160.689 127.291 160.313 127.168 159.958 126.932C159.426 126.58 158.949 125.968 158.611 125.18C158.272 124.392 158.071 123.433 158.071 122.398C158.071 121.019 158.43 119.773 158.992 118.891C159.273 118.449 159.603 118.099 159.958 117.864C160.313 117.628 160.689 117.506 161.081 117.505C161.473 117.506 161.848 117.628 162.203 117.864C162.736 118.217 163.212 118.829 163.55 119.617C163.889 120.404 164.09 121.364 164.09 122.398H164.355H164.621C164.62 120.936 164.245 119.609 163.623 118.629C163.311 118.139 162.936 117.735 162.507 117.449C162.079 117.164 161.593 117 161.081 117C160.569 117 160.083 117.164 159.654 117.449C159.011 117.879 158.488 118.571 158.12 119.426C157.752 120.281 157.541 121.301 157.541 122.398C157.541 123.861 157.916 125.188 158.538 126.168C158.85 126.658 159.225 127.062 159.654 127.347C160.083 127.632 160.569 127.797 161.081 127.797C161.593 127.797 162.079 127.632 162.507 127.347C163.151 126.918 163.673 126.226 164.042 125.371C164.409 124.516 164.621 123.495 164.621 122.398H164.355Z" fill="#373D43"/>
<path d="M176.081 121.596C176.081 124.438 174.615 126.742 172.806 126.742C170.998 126.742 169.532 124.438 169.532 121.596C169.532 118.754 170.998 116.45 172.806 116.45C174.615 116.45 176.081 118.754 176.081 121.596Z" fill="#373D43"/>
<path d="M176.081 121.596H175.816C175.817 122.975 175.458 124.221 174.895 125.103C174.615 125.545 174.284 125.895 173.929 126.13C173.574 126.366 173.199 126.489 172.807 126.489C172.414 126.489 172.039 126.366 171.684 126.13C171.152 125.778 170.675 125.165 170.337 124.377C169.998 123.589 169.797 122.63 169.798 121.596C169.796 120.216 170.156 118.971 170.718 118.088C170.999 117.647 171.329 117.297 171.684 117.062C172.039 116.826 172.414 116.703 172.807 116.702C173.199 116.703 173.574 116.826 173.929 117.062C174.461 117.414 174.938 118.027 175.276 118.815C175.615 119.602 175.816 120.561 175.816 121.596H176.081H176.347C176.346 120.133 175.972 118.806 175.349 117.826C175.037 117.336 174.662 116.932 174.233 116.647C173.805 116.362 173.319 116.197 172.807 116.197C172.294 116.197 171.808 116.362 171.38 116.647C170.737 117.076 170.214 117.768 169.846 118.623C169.479 119.478 169.267 120.499 169.267 121.596C169.267 123.058 169.642 124.386 170.264 125.366C170.576 125.855 170.951 126.259 171.38 126.545C171.808 126.83 172.294 126.995 172.807 126.995C173.319 126.995 173.805 126.83 174.233 126.545C174.876 126.116 175.4 125.423 175.768 124.569C176.135 123.713 176.346 122.692 176.347 121.596H176.081" fill="#373D43"/>
<path d="M89.5812 170.621L86.6025 183.132C85.6759 187.022 82.0449 189.784 77.8557 189.784C73.667 189.784 70.0355 187.022 69.1089 183.132L63.8662 161.113" fill="#67E499"/>
<path d="M89.3224 170.565L86.3437 183.076C85.4447 186.851 81.9209 189.531 77.8558 189.531C73.7908 189.531 70.267 186.851 69.368 183.076L64.1253 161.057L63.6079 161.169L68.8506 183.188C69.8048 187.194 73.5429 190.037 77.8558 190.037C82.1687 190.037 85.9074 187.194 86.8611 183.188L89.8404 170.677L89.3224 170.565Z" fill="#373D43"/>
<path d="M134.16 170.621L131.17 183.175C130.25 187.041 126.643 189.784 122.481 189.784C118.277 189.784 114.644 186.985 113.767 183.069L110.784 169.752" fill="#67E499"/>
<path d="M133.901 170.565L130.911 183.119C130.019 186.87 126.518 189.531 122.481 189.531C118.402 189.531 114.878 186.816 114.026 183.016L111.043 169.7L110.524 169.805L113.507 183.121C114.411 187.154 118.151 190.037 122.481 190.037C126.766 190.037 130.481 187.212 131.429 183.231L134.418 170.677L133.901 170.565" fill="#373D43"/>
<path d="M108.101 105.281C108.101 105.281 109.675 86.6919 123.054 81.4445C131.965 77.9504 135.598 92.6135 135.598 92.6135" fill="#67E499"/>
<path d="M108.365 105.301C108.365 105.301 108.371 105.232 108.386 105.097C108.494 104.081 109.09 99.4232 111.213 94.424C113.337 89.4217 116.981 84.0975 123.155 81.678C124.076 81.3171 124.929 81.1589 125.723 81.1589C127.385 81.1599 128.807 81.8528 130.028 82.9213C131.859 84.5225 133.197 86.9643 134.066 89.0047C134.501 90.0242 134.82 90.9431 135.03 91.6062C135.135 91.9378 135.213 92.2051 135.263 92.3891C135.315 92.5731 135.339 92.6716 135.339 92.6716L135.856 92.5554C135.853 92.5443 135.125 89.6032 133.511 86.6433C132.703 85.1634 131.674 83.6775 130.387 82.5493C129.104 81.4232 127.547 80.653 125.723 80.6535C124.855 80.6535 123.93 80.8278 122.953 81.211C116.16 83.8781 112.39 89.9084 110.312 95.2428C108.232 100.581 107.838 105.247 107.836 105.261L108.365 105.301" fill="#373D43"/>
<path d="M133.739 95.3914L133.777 95.3757L134.408 94.7854C134.408 94.7854 131.361 81.1675 124.786 85.3424C119.235 88.8668 118.785 103.584 118.779 108.084C121.458 103.097 126.751 98.3881 133.739 95.3914" fill="#373D43"/>
<path d="M133.739 95.3914L133.845 95.6228L133.884 95.6072L133.928 95.5885L134.698 94.8687L134.667 94.7328C134.665 94.7232 134.091 92.1525 132.893 89.5642C132.294 88.2698 131.54 86.9698 130.607 85.9782C129.679 84.989 128.549 84.2946 127.222 84.2941C126.411 84.2936 125.545 84.5559 124.639 85.1321C123.181 86.06 122.095 87.685 121.26 89.6552C120.01 92.613 119.329 96.3689 118.954 99.8144C118.58 103.259 118.516 106.391 118.513 108.084L118.512 109.136L119.015 108.199C121.659 103.274 126.908 98.5968 133.848 95.6218L133.845 95.6228L133.739 95.3914L133.63 95.1609C126.593 98.1798 121.256 102.92 118.543 107.969L118.779 108.084H119.044C119.047 105.843 119.161 101.048 119.965 96.3886C120.366 94.059 120.94 91.7639 121.752 89.8442C122.563 87.9231 123.615 86.3871 124.933 85.5526C125.774 85.0189 126.532 84.8 127.222 84.7995C128.342 84.799 129.335 85.3843 130.212 86.3153C131.525 87.7073 132.521 89.8452 133.175 91.6294C133.502 92.5215 133.746 93.3256 133.908 93.9054C133.989 94.1955 134.049 94.4295 134.089 94.5907C134.129 94.7515 134.148 94.8379 134.148 94.8379L134.408 94.7853L134.222 94.6049L133.591 95.1952L133.777 95.3757L133.67 95.1442L133.633 95.1599L133.632 95.1604L133.63 95.1609L133.739 95.3914" fill="#373D43"/>
<path d="M120.211 71.1721C120.211 63.536 113.711 57.3449 105.693 57.3449C97.675 57.3449 91.1746 63.536 91.1746 71.1721C91.1746 78.8091 97.675 84.9997 105.693 84.9997C113.711 84.9997 120.211 78.8091 120.211 71.1721Z" fill="white"/>
<path d="M120.211 71.172H120.476C120.476 63.396 113.858 57.0922 105.693 57.0922C97.5278 57.0922 90.9091 63.396 90.9091 71.172C90.9091 78.9486 97.5278 85.2524 105.693 85.2524C113.858 85.2524 120.476 78.9486 120.476 71.172H120.211H119.946C119.946 74.9219 118.351 78.3138 115.771 80.7712C113.191 83.2281 109.63 84.747 105.693 84.747C101.756 84.747 98.1943 83.2281 95.6141 80.7712C93.0345 78.3138 91.4397 74.9219 91.4397 71.172C91.4397 67.4227 93.0345 64.0308 95.6141 61.5734C98.1943 59.1165 101.756 57.5976 105.693 57.5976C109.63 57.5976 113.191 59.1165 115.771 61.5734C118.351 64.0308 119.946 67.4227 119.946 71.172H120.211Z" fill="#373D43"/>
<path d="M118.503 71.1721C118.503 63.536 112.003 57.3449 103.985 57.3449C95.9666 57.3449 89.4662 63.536 89.4662 71.1721C89.4662 78.8091 95.9666 84.9997 103.985 84.9997C112.003 84.9997 118.503 78.8091 118.503 71.1721Z" fill="white"/>
<path d="M118.503 71.172H118.769C118.768 63.396 112.15 57.0922 103.985 57.0922C95.8197 57.0922 89.2015 63.396 89.2009 71.172C89.2015 78.9486 95.8197 85.2524 103.985 85.2524C112.15 85.2524 118.768 78.9486 118.769 71.172H118.503H118.238C118.238 74.9219 116.643 78.3138 114.063 80.7712C111.483 83.2281 107.921 84.747 103.985 84.747C100.048 84.747 96.4867 83.2281 93.9065 80.7712C91.3269 78.3138 89.7316 74.9219 89.7316 71.172C89.7316 67.4227 91.3269 64.0308 93.9065 61.5734C96.4867 59.1165 100.048 57.5976 103.985 57.5976C107.921 57.5976 111.483 59.1165 114.063 61.5734C116.643 64.0308 118.238 67.4227 118.238 71.172H118.503Z" fill="#373D43"/>
<path d="M115.656 71.1721C115.656 65.0331 110.431 60.0561 103.985 60.0561C97.539 60.0561 92.3134 65.0331 92.3134 71.1721C92.3134 77.3116 97.539 82.2886 103.985 82.2886C110.431 82.2886 115.656 77.3116 115.656 71.1721Z" fill="white"/>
<path d="M115.656 71.1721H115.921C115.921 64.8936 110.577 59.8039 103.985 59.8034C97.3919 59.8039 92.0479 64.8936 92.0479 71.1721C92.0479 77.4516 97.3919 82.5413 103.985 82.5413C110.577 82.5413 115.921 77.4516 115.921 71.1721H115.656H115.391C115.391 74.1728 114.114 76.8875 112.05 78.8541C109.985 80.8203 107.135 82.0358 103.985 82.0358C100.834 82.0358 97.9841 80.8203 95.9192 78.8541C93.8548 76.8875 92.5785 74.1728 92.5785 71.1721C92.5785 68.1718 93.8548 65.4576 95.9192 63.4905C97.9841 61.5244 100.834 60.3093 103.985 60.3088C107.135 60.3093 109.985 61.5244 112.05 63.4905C114.114 65.4576 115.391 68.1718 115.391 71.1721H115.656Z" fill="#373D43"/>
<path d="M93.3211 71.1721C93.3211 65.1938 98.2767 60.3199 104.488 60.0682C104.322 60.0616 104.154 60.0561 103.985 60.0561C97.5391 60.0561 92.3134 65.0331 92.3134 71.1721C92.3134 77.3116 97.5391 82.2886 103.985 82.2886C104.154 82.2886 104.322 82.283 104.488 82.2764C98.2767 82.0247 93.3211 77.1508 93.3211 71.1721" fill="white"/>
<path d="M93.321 71.1721H93.5863C93.5863 65.3298 98.4299 60.5666 104.5 60.3209C104.641 60.3149 104.754 60.2032 104.754 60.0682C104.754 59.9333 104.642 59.8216 104.5 59.816C104.331 59.8089 104.159 59.8034 103.985 59.8034C97.3919 59.8039 92.0479 64.8936 92.0479 71.1721C92.0479 77.4516 97.3919 82.5413 103.985 82.5413C104.16 82.5413 104.331 82.5357 104.499 82.5291C104.642 82.5231 104.754 82.4124 104.754 82.2764C104.754 82.141 104.642 82.0298 104.5 82.0242C98.4299 81.7781 93.5863 77.0144 93.5863 71.1721H93.321H93.0556C93.0562 77.2868 98.1237 82.2714 104.477 82.5291L104.488 82.2764L104.477 82.0242C104.312 82.0308 104.148 82.0358 103.985 82.0358C100.834 82.0358 97.9841 80.8203 95.9192 78.8541C93.8548 76.8875 92.5785 74.1728 92.5785 71.1721C92.5785 68.1718 93.8548 65.4576 95.9192 63.4905C97.9841 61.5244 100.834 60.3093 103.985 60.3088C104.148 60.3088 104.312 60.3138 104.477 60.3209L104.488 60.0682L104.477 59.816C98.1237 60.0733 93.0562 65.0578 93.0556 71.1721H93.321" fill="#373D43"/>
<path d="M113.696 60.7611H114.805V60.2557H113.696V60.7611Z" fill="#373D43"/>
<path d="M115.41 62.0096H116.216V61.5042H115.41V62.0096Z" fill="#373D43"/>
<path d="M117.124 63.9297H118.031V63.4243H117.124V63.9297Z" fill="#373D43"/>
<path d="M117.829 66.33H119.039V65.8246H117.829V66.33Z" fill="#373D43"/>
<path d="M118.837 68.9224H119.946V68.417H118.837V68.9224Z" fill="#373D43"/>
<path d="M118.737 74.3947H119.946V73.8892H118.737V74.3947Z" fill="#373D43"/>
<path d="M115.209 80.9239H116.216V80.4184H115.209V80.9239Z" fill="#373D43"/>
<path d="M113.495 82.1718H114.604V81.6664H113.495V82.1718Z" fill="#373D43"/>
<path d="M111.68 83.5157H112.789V83.0103H111.68V83.5157Z" fill="#373D43"/>
<path d="M111.176 59.4172H112.89V58.9118H111.176V59.4172Z" fill="#373D43"/>
<path d="M103.388 67.3848C103.388 66.3886 103.807 66.0101 104.539 66.0101C105.272 66.0101 105.69 66.3886 105.69 67.3848V67.963H107.867V67.5248C107.867 65.631 107.029 64.4351 105.397 64.1162V63.08H103.513V64.1162C101.902 64.4553 101.086 65.6512 101.086 67.5248C101.086 71.5107 105.586 71.6502 105.586 74.5205C105.586 75.5172 105.125 75.8761 104.393 75.8761C103.66 75.8761 103.2 75.5172 103.2 74.5205V73.4242H101.023V74.381C101.023 76.2744 101.86 77.49 103.513 77.8094V78.8258H105.397V77.8094C107.029 77.49 107.888 76.2744 107.888 74.381C107.888 70.3947 103.388 70.2552 103.388 67.3848" fill="#373D43"/>
<path d="M145.007 41.3697C145.007 33.7331 138.507 27.542 130.489 27.542C122.47 27.542 115.97 33.7331 115.97 41.3697C115.97 49.0063 122.47 55.1973 130.489 55.1973C138.507 55.1973 145.007 49.0063 145.007 41.3697Z" fill="white"/>
<path d="M145.007 41.3697H145.273C145.273 33.5931 138.653 27.2898 130.489 27.2893C122.324 27.2898 115.705 33.5931 115.705 41.3697C115.705 49.1463 122.324 55.45 130.489 55.45C138.653 55.45 145.273 49.1463 145.273 41.3697H145.007H144.742C144.742 45.119 143.147 48.5114 140.567 50.9683C137.987 53.4258 134.425 54.9446 130.489 54.9446C126.552 54.9446 122.99 53.4258 120.41 50.9683C117.83 48.5114 116.236 45.119 116.236 41.3697C116.236 37.6204 117.83 34.2284 120.41 31.771C122.99 29.3141 126.552 27.7953 130.489 27.7948C134.425 27.7953 137.987 29.3141 140.567 31.771C143.147 34.2284 144.742 37.6204 144.742 41.3697H145.007Z" fill="#373D43"/>
<path d="M143.299 41.3697C143.299 33.7331 136.799 27.542 128.781 27.542C120.762 27.542 114.262 33.7331 114.262 41.3697C114.262 49.0063 120.762 55.1973 128.781 55.1973C136.799 55.1973 143.299 49.0063 143.299 41.3697Z" fill="white"/>
<path d="M143.299 41.3697H143.564C143.564 33.5931 136.946 27.2898 128.781 27.2893C120.616 27.2898 113.997 33.5931 113.997 41.3697C113.997 49.1463 120.616 55.45 128.781 55.45C136.946 55.45 143.564 49.1463 143.564 41.3697H143.299H143.034C143.034 45.119 141.439 48.5114 138.859 50.9683C136.279 53.4258 132.717 54.9446 128.781 54.9446C124.844 54.9446 121.283 53.4258 118.702 50.9683C116.123 48.5114 114.528 45.119 114.527 41.3697C114.528 37.6204 116.123 34.2284 118.702 31.771C121.283 29.3141 124.844 27.7953 128.781 27.7948C132.717 27.7953 136.279 29.3141 138.859 31.771C141.439 34.2284 143.034 37.6204 143.034 41.3697H143.299Z" fill="#373D43"/>
<path d="M140.453 41.3696C140.453 35.2307 135.227 30.2537 128.781 30.2537C122.334 30.2537 117.109 35.2307 117.109 41.3696C117.109 47.5091 122.334 52.4861 128.781 52.4861C135.227 52.4861 140.453 47.5091 140.453 41.3696Z" fill="white"/>
<path d="M140.453 41.3697H140.718C140.718 35.0907 135.374 30.001 128.781 30.001C122.188 30.001 116.844 35.0907 116.844 41.3697C116.844 47.6487 122.188 52.7384 128.781 52.7389C135.374 52.7384 140.718 47.6487 140.718 41.3697H140.453H140.187C140.187 44.3705 138.911 47.0846 136.847 49.0513C134.781 51.0179 131.931 52.233 128.781 52.2335C125.63 52.233 122.78 51.0179 120.715 49.0513C118.651 47.0846 117.375 44.3705 117.375 41.3697C117.375 38.3689 118.651 35.6548 120.715 33.6881C122.78 31.7215 125.63 30.5064 128.781 30.5064C131.931 30.5064 134.781 31.7215 136.847 33.6881C138.911 35.6548 140.187 38.3689 140.187 41.3697H140.453Z" fill="#373D43"/>
<path d="M118.117 41.3696C118.117 35.3914 123.073 30.517 129.285 30.2658C129.118 30.2587 128.95 30.2537 128.781 30.2537C122.334 30.2537 117.109 35.2307 117.109 41.3696C117.109 47.5091 122.334 52.4861 128.781 52.4861C128.95 52.4861 129.118 52.4806 129.285 52.474C123.073 52.2223 118.117 47.3479 118.117 41.3696" fill="white"/>
<path d="M118.117 41.3697H118.382C118.382 35.5274 123.226 30.7637 129.296 30.518C129.439 30.5125 129.55 30.4018 129.55 30.2658C129.55 30.1299 129.439 30.0192 129.296 30.0131C129.127 30.0065 128.956 30.001 128.781 30.001C122.188 30.001 116.844 35.0907 116.844 41.3697C116.844 47.6487 122.188 52.7384 128.781 52.7389C128.956 52.7389 129.127 52.7333 129.296 52.7263C129.438 52.7207 129.55 52.61 129.55 52.4741C129.55 52.3381 129.439 52.2274 129.296 52.2213C123.226 51.9757 118.382 47.212 118.382 41.3697H118.117H117.852C117.852 47.4839 122.92 52.469 129.274 52.7263L129.285 52.4741L129.274 52.2213C129.108 52.2279 128.944 52.2335 128.781 52.2335C125.63 52.233 122.78 51.0179 120.715 49.0513C118.651 47.0846 117.375 44.3705 117.375 41.3697C117.375 38.3689 118.651 35.6548 120.715 33.6881C122.78 31.7215 125.63 30.5064 128.781 30.5064C128.944 30.5064 129.108 30.5115 129.273 30.518L129.285 30.2658L129.274 30.0131C122.92 30.2709 117.852 35.2555 117.852 41.3697H118.117" fill="#373D43"/>
<path d="M138.493 30.9583H139.601V30.4528H138.493V30.9583Z" fill="#373D43"/>
<path d="M140.206 32.2067H141.013V31.7013H140.206V32.2067Z" fill="#373D43"/>
<path d="M141.92 34.1268H142.828V33.6214H141.92V34.1268Z" fill="#373D43"/>
<path d="M142.626 36.5271H143.835V36.0217H142.626V36.5271Z" fill="#373D43"/>
<path d="M143.634 39.1195H144.743V38.6141H143.634V39.1195Z" fill="#373D43"/>
<path d="M143.533 44.5924H144.743V44.0869H143.533V44.5924Z" fill="#373D43"/>
<path d="M140.004 51.121H141.013V50.6156H140.004V51.121Z" fill="#373D43"/>
<path d="M138.291 52.3694H139.4V51.864H138.291V52.3694Z" fill="#373D43"/>
<path d="M136.476 53.7134H137.585V53.2079H136.476V53.7134Z" fill="#373D43"/>
<path d="M135.973 29.6143H137.686V29.1089H135.973V29.6143Z" fill="#373D43"/>
<path d="M132.288 38.8263C133.252 38.4391 133.781 38.659 134.066 39.3019C134.351 39.9443 134.147 40.4588 133.183 40.846L132.624 41.0709L133.47 42.981L133.894 42.8101C135.726 42.0742 136.557 40.8748 136.231 39.3181L137.234 38.9153L136.501 37.263L135.498 37.6653C134.544 36.3836 133.071 36.1323 131.258 36.8607C127.402 38.4108 129.016 42.4128 126.24 43.5288C125.275 43.916 124.749 43.6517 124.465 43.0088C124.18 42.3663 124.348 41.823 125.312 41.4353L126.373 41.0093L125.526 39.0992L124.601 39.4712C122.769 40.2076 121.919 41.4146 122.253 42.9895L121.269 43.3843L122.002 45.037L122.985 44.6423C123.928 45.9504 125.438 46.2309 127.27 45.4945C131.126 43.9448 129.512 39.9423 132.288 38.8263" fill="#373D43"/>
<path d="M120.448 14.0798C120.448 6.44324 113.947 0.252711 105.929 0.252711C97.9105 0.252711 91.4106 6.44324 91.4106 14.0798C91.4106 21.7169 97.9105 27.9075 105.929 27.9075C113.947 27.9075 120.448 21.7169 120.448 14.0798Z" fill="white"/>
<path d="M120.448 14.0798H120.713C120.713 6.30376 114.094 4.84181e-06 105.929 4.84181e-06C97.764 4.84181e-06 91.1453 6.30376 91.1453 14.0798C91.1453 21.8564 97.764 28.1602 105.929 28.1602C114.094 28.1602 120.713 21.8564 120.713 14.0798H120.448H120.182C120.182 17.8297 118.587 21.2216 116.008 23.679C113.427 26.1359 109.865 27.6548 105.929 27.6548C101.992 27.6548 98.4306 26.1359 95.8504 23.679C93.2707 21.2216 91.676 17.8297 91.676 14.0798C91.676 10.3305 93.2707 6.93859 95.8504 4.48117C98.4306 2.02426 101.992 0.505438 105.929 0.505438C109.865 0.505438 113.427 2.02426 116.008 4.48117C118.587 6.93859 120.182 10.3305 120.182 14.0798H120.448Z" fill="#373D43"/>
<path d="M118.739 14.0798C118.739 6.44324 112.239 0.252711 104.221 0.252711C96.2027 0.252711 89.7023 6.44324 89.7023 14.0798C89.7023 21.7169 96.2027 27.9075 104.221 27.9075C112.239 27.9075 118.739 21.7169 118.739 14.0798Z" fill="white"/>
<path d="M118.74 14.0798H119.005C119.005 6.30376 112.386 4.84181e-06 104.221 4.84181e-06C96.0564 4.84181e-06 89.4371 6.30376 89.4371 14.0798C89.4371 21.8564 96.0564 28.1602 104.221 28.1602C112.386 28.1602 119.005 21.8564 119.005 14.0798H118.74H118.474C118.474 17.8297 116.879 21.2216 114.299 23.679C111.719 26.1359 108.158 27.6548 104.221 27.6548C100.284 27.6548 96.7229 26.1359 94.1427 23.679C91.5631 21.2216 89.9678 17.8297 89.9678 14.0798C89.9678 10.3305 91.5631 6.93859 94.1427 4.48117C96.7229 2.02426 100.284 0.505438 104.221 0.505438C108.158 0.505438 111.719 2.02426 114.299 4.48117C116.879 6.93859 118.474 10.3305 118.474 14.0798H118.74Z" fill="#373D43"/>
<path d="M115.893 14.0798C115.893 7.94084 110.667 2.96385 104.221 2.96385C97.7746 2.96385 92.549 7.94084 92.549 14.0798C92.549 20.2193 97.7746 25.1963 104.221 25.1963C110.667 25.1963 115.893 20.2193 115.893 14.0798Z" fill="white"/>
<path d="M115.893 14.0798H116.158C116.158 7.80131 110.813 2.7111 104.221 2.7111C97.628 2.7111 92.284 7.80131 92.2834 14.0798C92.284 20.3593 97.628 25.449 104.221 25.449C110.813 25.449 116.158 20.3593 116.158 14.0798H115.893H115.627C115.627 17.0806 114.351 19.7952 112.286 21.7619C110.221 23.728 107.371 24.9436 104.221 24.9436C101.07 24.9436 98.2203 23.728 96.1554 21.7619C94.0905 19.7952 92.8147 17.0806 92.8141 14.0798C92.8147 11.0795 94.0905 8.36487 96.1554 6.39823C98.2203 4.4321 101.07 3.21653 104.221 3.21653C107.371 3.21653 110.221 4.4321 112.286 6.39823C114.351 8.36487 115.627 11.0795 115.627 14.0798H115.893" fill="#373D43"/>
<path d="M93.5573 14.0798C93.5573 8.10157 98.5134 3.22768 104.725 2.97598C104.557 2.9694 104.39 2.96385 104.221 2.96385C97.7746 2.96385 92.549 7.94084 92.549 14.0798C92.549 20.2193 97.7746 25.1963 104.221 25.1963C104.39 25.1963 104.557 25.1908 104.725 25.1842C98.5134 24.9325 93.5573 20.0581 93.5573 14.0798" fill="white"/>
<path d="M93.5571 14.0798H93.8224C93.8219 8.2375 98.666 3.4743 104.736 3.22866C104.878 3.2226 104.99 3.11191 104.99 2.97594C104.99 2.84049 104.879 2.72929 104.736 2.72373C104.567 2.71666 104.396 2.7111 104.221 2.7111C97.628 2.7111 92.284 7.80131 92.2834 14.0798C92.284 20.3593 97.628 25.449 104.221 25.449C104.396 25.449 104.567 25.4434 104.736 25.4369C104.878 25.4313 104.99 25.3201 104.99 25.1842C104.99 25.0487 104.878 24.9375 104.736 24.932C98.666 24.6858 93.8219 19.9221 93.8224 14.0798H93.5571H93.2918C93.2918 20.1945 98.3598 25.1791 104.713 25.4369L104.725 25.1842L104.714 24.932C104.548 24.9385 104.384 24.9436 104.221 24.9436C101.07 24.9436 98.2203 23.728 96.1554 21.7619C94.0905 19.7952 92.8147 17.0806 92.8141 14.0798C92.8147 11.0795 94.0905 8.36487 96.1554 6.39823C98.2203 4.4321 101.07 3.21653 104.221 3.21653C104.384 3.21653 104.548 3.22158 104.713 3.22866L104.725 2.97594L104.713 2.72373C98.3598 2.981 93.2918 7.96558 93.2918 14.0798H93.5571" fill="#373D43"/>
<path d="M113.932 3.66895H115.041V3.16351H113.932V3.66895Z" fill="#373D43"/>
<path d="M115.646 4.91689H116.453V4.41145H115.646V4.91689Z" fill="#373D43"/>
<path d="M117.36 6.83754H118.267V6.33211H117.36V6.83754Z" fill="#373D43"/>
<path d="M118.065 9.23779H119.275V8.73235H118.065V9.23779Z" fill="#373D43"/>
<path d="M119.074 11.8302H120.183V11.3247H119.074V11.8302Z" fill="#373D43"/>
<path d="M118.973 17.303H120.183V16.7976H118.973V17.303Z" fill="#373D43"/>
<path d="M115.444 23.8316H116.453V23.3262H115.444V23.8316Z" fill="#373D43"/>
<path d="M113.731 25.0796H114.839V24.5742H113.731V25.0796Z" fill="#373D43"/>
<path d="M111.916 26.424H113.025V25.9186H111.916V26.424Z" fill="#373D43"/>
<path d="M111.412 2.32495H113.126V1.81952H111.412V2.32495Z" fill="#373D43"/>
<path d="M101.756 11.4228C101.186 10.5873 101.32 10.0526 101.934 9.67251C102.549 9.29242 103.116 9.393 103.686 10.2285L104.017 10.7132L105.842 9.58355L105.591 9.2161C104.508 7.62803 103.121 7.05992 101.57 7.63915L100.977 6.77031L99.3986 7.74731L99.9914 8.61666C98.834 9.73721 98.8334 11.163 99.9054 12.7344C102.186 16.0769 106.038 13.8595 107.68 16.2659C108.25 17.1014 108.069 17.6412 107.455 18.0212C106.841 18.4013 106.25 18.3397 105.68 17.5037L105.053 16.5843L103.228 17.7139L103.775 18.5161C104.858 20.1041 106.256 20.6894 107.825 20.0986L108.406 20.9507L109.985 19.9737L109.404 19.1216C110.59 18.0071 110.614 16.5418 109.53 14.9543C107.25 11.6119 103.398 13.8297 101.756 11.4228" fill="#373D43"/>
<path d="M31.5176 190.544H223.364V190.038H31.5176V190.544Z" fill="#373D43"/>
</g>
</svg>
